G04 #@! TF.GenerationSoftware,KiCad,Pcbnew,9.0.5*
G04 #@! TF.CreationDate,2025-11-25T20:56:40+00:00*
G04 #@! TF.ProjectId,Amiga500,416d6967-6135-4303-902e-6b696361645f,2*
G04 #@! TF.SameCoordinates,Original*
G04 #@! TF.FileFunction,Soldermask,Top*
G04 #@! TF.FilePolarity,Negative*
%FSLAX46Y46*%
G04 Gerber Fmt 4.6, Leading zero omitted, Abs format (unit mm)*
G04 Created by KiCad (PCBNEW 9.0.5) date 2025-11-25 20:56:40*
%MOMM*%
%LPD*%
G01*
G04 APERTURE LIST*
G04 Aperture macros list*
%AMRoundRect*
0 Rectangle with rounded corners*
0 $1 Rounding radius*
0 $2 $3 $4 $5 $6 $7 $8 $9 X,Y pos of 4 corners*
0 Add a 4 corners polygon primitive as box body*
4,1,4,$2,$3,$4,$5,$6,$7,$8,$9,$2,$3,0*
0 Add four circle primitives for the rounded corners*
1,1,$1+$1,$2,$3*
1,1,$1+$1,$4,$5*
1,1,$1+$1,$6,$7*
1,1,$1+$1,$8,$9*
0 Add four rect primitives between the rounded corners*
20,1,$1+$1,$2,$3,$4,$5,0*
20,1,$1+$1,$4,$5,$6,$7,0*
20,1,$1+$1,$6,$7,$8,$9,0*
20,1,$1+$1,$8,$9,$2,$3,0*%
%AMHorizOval*
0 Thick line with rounded ends*
0 $1 width*
0 $2 $3 position (X,Y) of the first rounded end (center of the circle)*
0 $4 $5 position (X,Y) of the second rounded end (center of the circle)*
0 Add line between two ends*
20,1,$1,$2,$3,$4,$5,0*
0 Add two circle primitives to create the rounded ends*
1,1,$1,$2,$3*
1,1,$1,$4,$5*%
G04 Aperture macros list end*
%ADD10C,0.100000*%
%ADD11R,1.600000X2.400000*%
%ADD12O,1.600000X2.400000*%
%ADD13R,2.400000X1.600000*%
%ADD14O,2.400000X1.600000*%
%ADD15R,1.422400X1.422400*%
%ADD16C,1.422400*%
%ADD17R,1.600000X1.600000*%
%ADD18O,1.600000X1.600000*%
%ADD19C,1.600000*%
%ADD20R,7.239000X112.014000*%
%ADD21R,7.000000X1.600000*%
%ADD22HorizOval,1.600000X0.000000X0.000000X0.000000X0.000000X0*%
%ADD23C,1.200000*%
%ADD24R,1.200000X1.200000*%
%ADD25HorizOval,1.600000X0.000000X0.000000X0.000000X0.000000X0*%
%ADD26HorizOval,1.600000X0.000000X0.000000X0.000000X0.000000X0*%
%ADD27HorizOval,1.600000X0.000000X0.000000X0.000000X0.000000X0*%
%ADD28C,5.000000*%
%ADD29C,8.000000*%
%ADD30R,1.500000X1.500000*%
%ADD31C,1.500000*%
%ADD32R,1.700000X1.700000*%
%ADD33O,1.700000X1.700000*%
%ADD34HorizOval,1.700000X0.000000X0.000000X0.000000X0.000000X0*%
%ADD35C,5.001260*%
%ADD36O,1.501140X1.998980*%
%ADD37O,1.600000X2.100000*%
%ADD38R,2.300000X2.300000*%
%ADD39C,2.300000*%
%ADD40C,2.500000*%
%ADD41R,2.170000X2.170000*%
%ADD42C,1.000000*%
%ADD43HorizOval,1.700000X0.000000X0.000000X0.000000X0.000000X0*%
%ADD44C,1.700000*%
%ADD45O,4.000000X2.000000*%
%ADD46O,1.800000X3.600000*%
%ADD47C,2.800000*%
%ADD48C,2.600000*%
%ADD49C,2.000000*%
%ADD50R,2.400000X2.400000*%
%ADD51C,2.400000*%
%ADD52R,1.727200X1.727200*%
%ADD53O,1.727200X1.727200*%
%ADD54HorizOval,1.727200X0.000000X0.000000X0.000000X0.000000X0*%
%ADD55HorizOval,1.727200X0.000000X0.000000X0.000000X0.000000X0*%
%ADD56HorizOval,1.727200X0.000000X0.000000X0.000000X0.000000X0*%
%ADD57R,1.400000X0.800000*%
%ADD58O,1.600000X1.800000*%
%ADD59RoundRect,0.150000X-0.825000X-0.150000X0.825000X-0.150000X0.825000X0.150000X-0.825000X0.150000X0*%
%ADD60R,0.510000X1.000000*%
G04 APERTURE END LIST*
D10*
X36909000Y-232452000D02*
X29009000Y-232452000D01*
X29009000Y-120852000D01*
X36909000Y-120852000D01*
X36909000Y-232452000D01*
G36*
X36909000Y-232452000D02*
G01*
X29009000Y-232452000D01*
X29009000Y-120852000D01*
X36909000Y-120852000D01*
X36909000Y-232452000D01*
G37*
D11*
X188981900Y-123517200D03*
D12*
X186441900Y-123517200D03*
X183901900Y-123517200D03*
X181361900Y-123517200D03*
X178821900Y-123517200D03*
X176281900Y-123517200D03*
X173741900Y-123517200D03*
X171201900Y-123517200D03*
X168661900Y-123517200D03*
X166121900Y-123517200D03*
X163581900Y-123517200D03*
X161041900Y-123517200D03*
X158501900Y-123517200D03*
X155961900Y-123517200D03*
X153421900Y-123517200D03*
X150881900Y-123517200D03*
X148341900Y-123517200D03*
X145801900Y-123517200D03*
X143261900Y-123517200D03*
X140721900Y-123517200D03*
X138181900Y-123517200D03*
X135641900Y-123517200D03*
X133101900Y-123517200D03*
X130561900Y-123517200D03*
X130561900Y-138757200D03*
X133101900Y-138757200D03*
X135641900Y-138757200D03*
X138181900Y-138757200D03*
X140721900Y-138757200D03*
X143261900Y-138757200D03*
X145801900Y-138757200D03*
X148341900Y-138757200D03*
X150881900Y-138757200D03*
X153421900Y-138757200D03*
X155961900Y-138757200D03*
X158501900Y-138757200D03*
X161041900Y-138757200D03*
X163581900Y-138757200D03*
X166121900Y-138757200D03*
X168661900Y-138757200D03*
X171201900Y-138757200D03*
X173741900Y-138757200D03*
X176281900Y-138757200D03*
X178821900Y-138757200D03*
X181361900Y-138757200D03*
X183901900Y-138757200D03*
X186441900Y-138757200D03*
X188981900Y-138757200D03*
D11*
X268166400Y-123517200D03*
D12*
X265626400Y-123517200D03*
X263086400Y-123517200D03*
X260546400Y-123517200D03*
X258006400Y-123517200D03*
X255466400Y-123517200D03*
X252926400Y-123517200D03*
X250386400Y-123517200D03*
X247846400Y-123517200D03*
X245306400Y-123517200D03*
X242766400Y-123517200D03*
X240226400Y-123517200D03*
X237686400Y-123517200D03*
X235146400Y-123517200D03*
X232606400Y-123517200D03*
X230066400Y-123517200D03*
X227526400Y-123517200D03*
X224986400Y-123517200D03*
X222446400Y-123517200D03*
X219906400Y-123517200D03*
X217366400Y-123517200D03*
X214826400Y-123517200D03*
X212286400Y-123517200D03*
X209746400Y-123517200D03*
X209746400Y-138757200D03*
X212286400Y-138757200D03*
X214826400Y-138757200D03*
X217366400Y-138757200D03*
X219906400Y-138757200D03*
X222446400Y-138757200D03*
X224986400Y-138757200D03*
X227526400Y-138757200D03*
X230066400Y-138757200D03*
X232606400Y-138757200D03*
X235146400Y-138757200D03*
X237686400Y-138757200D03*
X240226400Y-138757200D03*
X242766400Y-138757200D03*
X245306400Y-138757200D03*
X247846400Y-138757200D03*
X250386400Y-138757200D03*
X252926400Y-138757200D03*
X255466400Y-138757200D03*
X258006400Y-138757200D03*
X260546400Y-138757200D03*
X263086400Y-138757200D03*
X265626400Y-138757200D03*
X268166400Y-138757200D03*
D11*
X96589400Y-85988700D03*
D12*
X94049400Y-85988700D03*
X91509400Y-85988700D03*
X88969400Y-85988700D03*
X86429400Y-85988700D03*
X83889400Y-85988700D03*
X81349400Y-85988700D03*
X78809400Y-85988700D03*
X76269400Y-85988700D03*
X73729400Y-85988700D03*
X71189400Y-85988700D03*
X68649400Y-85988700D03*
X66109400Y-85988700D03*
X63569400Y-85988700D03*
X61029400Y-85988700D03*
X58489400Y-85988700D03*
X55949400Y-85988700D03*
X53409400Y-85988700D03*
X50869400Y-85988700D03*
X48329400Y-85988700D03*
X45789400Y-85988700D03*
X43249400Y-85988700D03*
X40709400Y-85988700D03*
X38169400Y-85988700D03*
X38169400Y-101228700D03*
X40709400Y-101228700D03*
X43249400Y-101228700D03*
X45789400Y-101228700D03*
X48329400Y-101228700D03*
X50869400Y-101228700D03*
X53409400Y-101228700D03*
X55949400Y-101228700D03*
X58489400Y-101228700D03*
X61029400Y-101228700D03*
X63569400Y-101228700D03*
X66109400Y-101228700D03*
X68649400Y-101228700D03*
X71189400Y-101228700D03*
X73729400Y-101228700D03*
X76269400Y-101228700D03*
X78809400Y-101228700D03*
X81349400Y-101228700D03*
X83889400Y-101228700D03*
X86429400Y-101228700D03*
X88969400Y-101228700D03*
X91509400Y-101228700D03*
X94049400Y-101228700D03*
X96589400Y-101228700D03*
D13*
X72522900Y-227457000D03*
D14*
X72522900Y-224917000D03*
X72522900Y-222377000D03*
X72522900Y-219837000D03*
X72522900Y-217297000D03*
X72522900Y-214757000D03*
X72522900Y-212217000D03*
X72522900Y-209677000D03*
X72522900Y-207137000D03*
X72522900Y-204597000D03*
X72522900Y-202057000D03*
X72522900Y-199517000D03*
X72522900Y-196977000D03*
X72522900Y-194437000D03*
X72522900Y-191897000D03*
X72522900Y-189357000D03*
X72522900Y-186817000D03*
X72522900Y-184277000D03*
X72522900Y-181737000D03*
X72522900Y-179197000D03*
X72522900Y-176657000D03*
X72522900Y-174117000D03*
X72522900Y-171577000D03*
X72522900Y-169037000D03*
X72522900Y-166497000D03*
X72522900Y-163957000D03*
X72522900Y-161417000D03*
X72522900Y-158877000D03*
X72522900Y-156337000D03*
X72522900Y-153797000D03*
X72522900Y-151257000D03*
X72522900Y-148717000D03*
X49662900Y-148717000D03*
X49662900Y-151257000D03*
X49662900Y-153797000D03*
X49662900Y-156337000D03*
X49662900Y-158877000D03*
X49662900Y-161417000D03*
X49662900Y-163957000D03*
X49662900Y-166497000D03*
X49662900Y-169037000D03*
X49662900Y-171577000D03*
X49662900Y-174117000D03*
X49662900Y-176657000D03*
X49662900Y-179197000D03*
X49662900Y-181737000D03*
X49662900Y-184277000D03*
X49662900Y-186817000D03*
X49662900Y-189357000D03*
X49662900Y-191897000D03*
X49662900Y-194437000D03*
X49662900Y-196977000D03*
X49662900Y-199517000D03*
X49662900Y-202057000D03*
X49662900Y-204597000D03*
X49662900Y-207137000D03*
X49662900Y-209677000D03*
X49662900Y-212217000D03*
X49662900Y-214757000D03*
X49662900Y-217297000D03*
X49662900Y-219837000D03*
X49662900Y-222377000D03*
X49662900Y-224917000D03*
X49662900Y-227457000D03*
D11*
X176256500Y-65541700D03*
D12*
X173716500Y-65541700D03*
X171176500Y-65541700D03*
X168636500Y-65541700D03*
X166096500Y-65541700D03*
X163556500Y-65541700D03*
X161016500Y-65541700D03*
X158476500Y-65541700D03*
X155936500Y-65541700D03*
X153396500Y-65541700D03*
X150856500Y-65541700D03*
X148316500Y-65541700D03*
X145776500Y-65541700D03*
X143236500Y-65541700D03*
X140696500Y-65541700D03*
X138156500Y-65541700D03*
X135616500Y-65541700D03*
X133076500Y-65541700D03*
X130536500Y-65541700D03*
X127996500Y-65541700D03*
X127996500Y-80781700D03*
X130536500Y-80781700D03*
X133076500Y-80781700D03*
X135616500Y-80781700D03*
X138156500Y-80781700D03*
X140696500Y-80781700D03*
X143236500Y-80781700D03*
X145776500Y-80781700D03*
X148316500Y-80781700D03*
X150856500Y-80781700D03*
X153396500Y-80781700D03*
X155936500Y-80781700D03*
X158476500Y-80781700D03*
X161016500Y-80781700D03*
X163556500Y-80781700D03*
X166096500Y-80781700D03*
X168636500Y-80781700D03*
X171176500Y-80781700D03*
X173716500Y-80781700D03*
X176256500Y-80781700D03*
D11*
X289121400Y-73860200D03*
D12*
X286581400Y-73860200D03*
X284041400Y-73860200D03*
X281501400Y-73860200D03*
X278961400Y-73860200D03*
X276421400Y-73860200D03*
X273881400Y-73860200D03*
X271341400Y-73860200D03*
X268801400Y-73860200D03*
X266261400Y-73860200D03*
X263721400Y-73860200D03*
X261181400Y-73860200D03*
X258641400Y-73860200D03*
X256101400Y-73860200D03*
X253561400Y-73860200D03*
X251021400Y-73860200D03*
X248481400Y-73860200D03*
X245941400Y-73860200D03*
X243401400Y-73860200D03*
X240861400Y-73860200D03*
X240861400Y-89100200D03*
X243401400Y-89100200D03*
X245941400Y-89100200D03*
X248481400Y-89100200D03*
X251021400Y-89100200D03*
X253561400Y-89100200D03*
X256101400Y-89100200D03*
X258641400Y-89100200D03*
X261181400Y-89100200D03*
X263721400Y-89100200D03*
X266261400Y-89100200D03*
X268801400Y-89100200D03*
X271341400Y-89100200D03*
X273881400Y-89100200D03*
X276421400Y-89100200D03*
X278961400Y-89100200D03*
X281501400Y-89100200D03*
X284041400Y-89100200D03*
X286581400Y-89100200D03*
X289121400Y-89100200D03*
D15*
X154095000Y-176657000D03*
D16*
X151555000Y-176657000D03*
X154095000Y-174117000D03*
X151555000Y-174117000D03*
X154095000Y-171577000D03*
X151555000Y-171577000D03*
X154095000Y-169037000D03*
X151555000Y-169037000D03*
X154095000Y-166497000D03*
X151555000Y-166497000D03*
X154095000Y-163957000D03*
X151555000Y-161417000D03*
X151555000Y-163957000D03*
X149015000Y-161417000D03*
X149015000Y-163957000D03*
X146475000Y-161417000D03*
X146475000Y-163957000D03*
X143935000Y-161417000D03*
X143935000Y-163957000D03*
X141395000Y-161417000D03*
X141395000Y-163957000D03*
X138855000Y-161417000D03*
X138855000Y-163957000D03*
X136315000Y-161417000D03*
X136315000Y-163957000D03*
X133775000Y-161417000D03*
X133775000Y-163957000D03*
X131235000Y-161417000D03*
X131235000Y-163957000D03*
X128695000Y-161417000D03*
X128695000Y-163957000D03*
X126155000Y-161417000D03*
X123615000Y-163957000D03*
X126155000Y-163957000D03*
X123615000Y-166497000D03*
X126155000Y-166497000D03*
X123615000Y-169037000D03*
X126155000Y-169037000D03*
X123615000Y-171577000D03*
X126155000Y-171577000D03*
X123615000Y-174117000D03*
X126155000Y-174117000D03*
X123615000Y-176657000D03*
X126155000Y-176657000D03*
X123615000Y-179197000D03*
X126155000Y-179197000D03*
X123615000Y-181737000D03*
X126155000Y-181737000D03*
X123615000Y-184277000D03*
X126155000Y-184277000D03*
X123615000Y-186817000D03*
X126155000Y-186817000D03*
X123615000Y-189357000D03*
X126155000Y-191897000D03*
X126155000Y-189357000D03*
X128695000Y-191897000D03*
X128695000Y-189357000D03*
X131235000Y-191897000D03*
X131235000Y-189357000D03*
X133775000Y-191897000D03*
X133775000Y-189357000D03*
X136315000Y-191897000D03*
X136315000Y-189357000D03*
X138855000Y-191897000D03*
X138855000Y-189357000D03*
X141395000Y-191897000D03*
X141395000Y-189357000D03*
X143935000Y-191897000D03*
X143935000Y-189357000D03*
X146475000Y-191897000D03*
X146475000Y-189357000D03*
X149015000Y-191897000D03*
X149015000Y-189357000D03*
X151555000Y-191897000D03*
X154095000Y-189357000D03*
X151555000Y-189357000D03*
X154095000Y-186817000D03*
X151555000Y-186817000D03*
X154095000Y-184277000D03*
X151555000Y-184277000D03*
X154095000Y-181737000D03*
X151555000Y-181737000D03*
X154095000Y-179197000D03*
X151555000Y-179197000D03*
D11*
X199903900Y-189239700D03*
D12*
X197363900Y-189239700D03*
X194823900Y-189239700D03*
X192283900Y-189239700D03*
X189743900Y-189239700D03*
X187203900Y-189239700D03*
X184663900Y-189239700D03*
X182123900Y-189239700D03*
X179583900Y-189239700D03*
X177043900Y-189239700D03*
X177043900Y-196859700D03*
X179583900Y-196859700D03*
X182123900Y-196859700D03*
X184663900Y-196859700D03*
X187203900Y-196859700D03*
X189743900Y-196859700D03*
X192283900Y-196859700D03*
X194823900Y-196859700D03*
X197363900Y-196859700D03*
X199903900Y-196859700D03*
D11*
X235654400Y-190382700D03*
D12*
X233114400Y-190382700D03*
X230574400Y-190382700D03*
X228034400Y-190382700D03*
X225494400Y-190382700D03*
X222954400Y-190382700D03*
X220414400Y-190382700D03*
X217874400Y-190382700D03*
X215334400Y-190382700D03*
X212794400Y-190382700D03*
X212794400Y-198002700D03*
X215334400Y-198002700D03*
X217874400Y-198002700D03*
X220414400Y-198002700D03*
X222954400Y-198002700D03*
X225494400Y-198002700D03*
X228034400Y-198002700D03*
X230574400Y-198002700D03*
X233114400Y-198002700D03*
X235654400Y-198002700D03*
D11*
X240734400Y-166824200D03*
D12*
X238194400Y-166824200D03*
X235654400Y-166824200D03*
X233114400Y-166824200D03*
X230574400Y-166824200D03*
X228034400Y-166824200D03*
X225494400Y-166824200D03*
X222954400Y-166824200D03*
X220414400Y-166824200D03*
X217874400Y-166824200D03*
X217874400Y-174444200D03*
X220414400Y-174444200D03*
X222954400Y-174444200D03*
X225494400Y-174444200D03*
X228034400Y-174444200D03*
X230574400Y-174444200D03*
X233114400Y-174444200D03*
X235654400Y-174444200D03*
X238194400Y-174444200D03*
X240734400Y-174444200D03*
D11*
X205047400Y-165617700D03*
D12*
X202507400Y-165617700D03*
X199967400Y-165617700D03*
X197427400Y-165617700D03*
X194887400Y-165617700D03*
X192347400Y-165617700D03*
X189807400Y-165617700D03*
X187267400Y-165617700D03*
X184727400Y-165617700D03*
X182187400Y-165617700D03*
X182187400Y-173237700D03*
X184727400Y-173237700D03*
X187267400Y-173237700D03*
X189807400Y-173237700D03*
X192347400Y-173237700D03*
X194887400Y-173237700D03*
X197427400Y-173237700D03*
X199967400Y-173237700D03*
X202507400Y-173237700D03*
X205047400Y-173237700D03*
D11*
X68649400Y-80146700D03*
D12*
X71189400Y-80146700D03*
X73729400Y-80146700D03*
X76269400Y-80146700D03*
X78809400Y-80146700D03*
X81349400Y-80146700D03*
X83889400Y-80146700D03*
X86429400Y-80146700D03*
X88969400Y-80146700D03*
X91509400Y-80146700D03*
X91509400Y-72526700D03*
X88969400Y-72526700D03*
X86429400Y-72526700D03*
X83889400Y-72526700D03*
X81349400Y-72526700D03*
X78809400Y-72526700D03*
X76269400Y-72526700D03*
X73729400Y-72526700D03*
X71189400Y-72526700D03*
X68649400Y-72526700D03*
D11*
X38169400Y-80146700D03*
D12*
X40709400Y-80146700D03*
X43249400Y-80146700D03*
X45789400Y-80146700D03*
X48329400Y-80146700D03*
X50869400Y-80146700D03*
X53409400Y-80146700D03*
X55949400Y-80146700D03*
X58489400Y-80146700D03*
X61029400Y-80146700D03*
X61029400Y-72526700D03*
X58489400Y-72526700D03*
X55949400Y-72526700D03*
X53409400Y-72526700D03*
X50869400Y-72526700D03*
X48329400Y-72526700D03*
X45789400Y-72526700D03*
X43249400Y-72526700D03*
X40709400Y-72526700D03*
X38169400Y-72526700D03*
D17*
X82677000Y-116522500D03*
D18*
X80137000Y-116522500D03*
X77597000Y-116522500D03*
X75057000Y-116522500D03*
X72517000Y-116522500D03*
X69977000Y-116522500D03*
X67437000Y-116522500D03*
X64897000Y-116522500D03*
X62357000Y-116522500D03*
X59817000Y-116522500D03*
D11*
X78867000Y-106045000D03*
D12*
X76327000Y-106045000D03*
X73787000Y-106045000D03*
X71247000Y-106045000D03*
X68707000Y-106045000D03*
X66167000Y-106045000D03*
X63627000Y-106045000D03*
X61087000Y-106045000D03*
X61087000Y-113665000D03*
X63627000Y-113665000D03*
X66167000Y-113665000D03*
X68707000Y-113665000D03*
X71247000Y-113665000D03*
X73787000Y-113665000D03*
X76327000Y-113665000D03*
X78867000Y-113665000D03*
D17*
X295656000Y-56642000D03*
D19*
X295656000Y-61642000D03*
D17*
X314833000Y-56642000D03*
D19*
X314833000Y-61642000D03*
D17*
X295656000Y-76962000D03*
D19*
X295656000Y-71962000D03*
D17*
X194945000Y-209550000D03*
D19*
X199945000Y-209550000D03*
D17*
X270764000Y-145796000D03*
D19*
X270764000Y-150796000D03*
D17*
X61087000Y-237490000D03*
D19*
X61087000Y-232490000D03*
D17*
X189865000Y-145923000D03*
D19*
X189865000Y-150923000D03*
D17*
X110490000Y-148971000D03*
D19*
X110490000Y-153971000D03*
D17*
X230632000Y-86547500D03*
D19*
X230632000Y-81547500D03*
D17*
X295656000Y-89027000D03*
D19*
X295656000Y-84027000D03*
D20*
X33448500Y-176657000D03*
D21*
X33575500Y-123317000D03*
X33575500Y-125857000D03*
X33575500Y-128397000D03*
X33575500Y-130937000D03*
X33575500Y-133477000D03*
X33575500Y-136017000D03*
X33575500Y-138557000D03*
X33575500Y-141097000D03*
X33575500Y-143637000D03*
X33575500Y-146177000D03*
X33575500Y-148717000D03*
X33575500Y-151257000D03*
X33575500Y-153797000D03*
X33575500Y-156337000D03*
X33575500Y-158877000D03*
X33575500Y-161417000D03*
X33575500Y-163957000D03*
X33575500Y-166497000D03*
X33575500Y-169037000D03*
X33575500Y-171577000D03*
X33575500Y-174117000D03*
X33575500Y-176657000D03*
X33575500Y-179197000D03*
X33575500Y-181737000D03*
X33575500Y-184277000D03*
X33575500Y-186817000D03*
X33575500Y-189357000D03*
X33575500Y-191897000D03*
X33575500Y-194437000D03*
X33575500Y-196977000D03*
X33575500Y-199517000D03*
X33575500Y-202057000D03*
X33575500Y-204597000D03*
X33575500Y-207137000D03*
X33575500Y-209677000D03*
X33575500Y-212217000D03*
X33575500Y-214757000D03*
X33575500Y-217297000D03*
X33575500Y-219837000D03*
X33575500Y-222377000D03*
X33575500Y-224917000D03*
X33575500Y-227457000D03*
X33575500Y-229997000D03*
D19*
X45720000Y-193167000D03*
D18*
X45720000Y-183007000D03*
D19*
X76835000Y-196977000D03*
D18*
X76835000Y-209677000D03*
D19*
X76835000Y-194437000D03*
D22*
X76835000Y-184277000D03*
D19*
X110999001Y-207137000D03*
D22*
X110999001Y-196977000D03*
D23*
X126266001Y-105033501D03*
D24*
X121266001Y-105033501D03*
D23*
X237617000Y-210676500D03*
D24*
X237617000Y-205676500D03*
D19*
X386842000Y-63627000D03*
D18*
X386842000Y-76327000D03*
D19*
X372872000Y-63627000D03*
D18*
X372872000Y-76327000D03*
D19*
X386842000Y-40640000D03*
D25*
X386842000Y-53340000D03*
D19*
X351155000Y-40640000D03*
D25*
X351155000Y-53340000D03*
D19*
X339598000Y-40640000D03*
D18*
X339598000Y-53340000D03*
D19*
X332613000Y-40640000D03*
D18*
X332613000Y-53340000D03*
D19*
X358902000Y-73787000D03*
D18*
X358902000Y-58547000D03*
D19*
X117792500Y-77025500D03*
D18*
X105092500Y-77025500D03*
D19*
X117792500Y-74485500D03*
D18*
X105092500Y-74485500D03*
D19*
X117792500Y-82105500D03*
D18*
X105092500Y-82105500D03*
D19*
X117792500Y-71272400D03*
D18*
X102552500Y-71272400D03*
D19*
X38100000Y-62928500D03*
D18*
X53340000Y-62928500D03*
D19*
X354965000Y-73787000D03*
D18*
X354965000Y-58547000D03*
D19*
X34290000Y-88392000D03*
D18*
X34290000Y-98552000D03*
D19*
X34290000Y-72517000D03*
D18*
X34290000Y-82677000D03*
D19*
X64897000Y-71628000D03*
D25*
X64897000Y-81788000D03*
D19*
X208915000Y-173228000D03*
D22*
X208915000Y-163068000D03*
D19*
X203835000Y-196859700D03*
D22*
X203835000Y-186699700D03*
D19*
X244602000Y-174371000D03*
D22*
X244602000Y-164211000D03*
D19*
X239522000Y-197993000D03*
D22*
X239522000Y-187833000D03*
D19*
X319278000Y-166814498D03*
D18*
X306578000Y-166814498D03*
D19*
X306578000Y-176402996D03*
D18*
X319278000Y-176402996D03*
D19*
X319278000Y-157226000D03*
D18*
X306578000Y-157226000D03*
D19*
X306578000Y-160422166D03*
D18*
X319278000Y-160422166D03*
D19*
X231902000Y-75164020D03*
D18*
X231902000Y-62464020D03*
D19*
X230065500Y-214566500D03*
D25*
X230065500Y-224726500D03*
D19*
X232473500Y-227266500D03*
D26*
X222313500Y-227266500D03*
D19*
X221678500Y-229806500D03*
D26*
X211518500Y-229806500D03*
D19*
X232473500Y-224726500D03*
D18*
X232473500Y-214566500D03*
D19*
X138303000Y-45563000D03*
X138303000Y-43023000D03*
X138303000Y-40483000D03*
X142113000Y-45563000D03*
X142113000Y-43023000D03*
X142113000Y-40483000D03*
X145923000Y-45563000D03*
X145923000Y-43023000D03*
X145923000Y-40483000D03*
X149733000Y-45563000D03*
X149733000Y-43023000D03*
X149733000Y-40483000D03*
X153543000Y-45563000D03*
X153543000Y-43023000D03*
X153543000Y-40483000D03*
X157353000Y-45563000D03*
X157353000Y-43023000D03*
X157353000Y-40483000D03*
X161163000Y-45563000D03*
X161163000Y-43023000D03*
X161163000Y-40483000D03*
X164973000Y-45563000D03*
X164973000Y-43023000D03*
X164973000Y-40483000D03*
X168783000Y-45563000D03*
X168783000Y-43023000D03*
X168783000Y-40483000D03*
X130556000Y-45563000D03*
X130556000Y-43023000D03*
X130556000Y-40483000D03*
X172593000Y-45563000D03*
X172593000Y-43023000D03*
X172593000Y-40483000D03*
X176403000Y-45563000D03*
X176403000Y-43023000D03*
X176403000Y-40483000D03*
X180213000Y-45563000D03*
X180213000Y-43023000D03*
X180213000Y-40483000D03*
X184023000Y-45563000D03*
X184023000Y-43023000D03*
X184023000Y-40483000D03*
X187833000Y-45563000D03*
X187833000Y-43023000D03*
X187833000Y-40483000D03*
X191643000Y-45563000D03*
X191643000Y-43023000D03*
X191643000Y-40483000D03*
X175196500Y-263017000D03*
D18*
X175196500Y-252857000D03*
D19*
X149733000Y-263017000D03*
D18*
X149733000Y-252857000D03*
D19*
X124142500Y-263017000D03*
D18*
X124142500Y-252857000D03*
D19*
X98679000Y-263017000D03*
D18*
X98679000Y-252857000D03*
D19*
X73152000Y-263017000D03*
D22*
X73152000Y-252857000D03*
D19*
X196723000Y-241300000D03*
D26*
X186563000Y-241300000D03*
D11*
X319893500Y-116519500D03*
D12*
X317353500Y-116519500D03*
X314813500Y-116519500D03*
X312273500Y-116519500D03*
X312273500Y-124139500D03*
X314813500Y-124139500D03*
X317353500Y-124139500D03*
X319893500Y-124139500D03*
D17*
X181590500Y-245297500D03*
D18*
X181590500Y-247837500D03*
X181590500Y-250377500D03*
X181590500Y-252917500D03*
X181590500Y-255457500D03*
X181590500Y-257997500D03*
X181590500Y-260537500D03*
X181590500Y-263077500D03*
X181590500Y-265617500D03*
X181590500Y-268157500D03*
D17*
X184067000Y-245297500D03*
D18*
X184067000Y-247837500D03*
X184067000Y-250377500D03*
X184067000Y-252917500D03*
X184067000Y-255457500D03*
X184067000Y-257997500D03*
X184067000Y-260537500D03*
X184067000Y-263077500D03*
X184067000Y-265617500D03*
X184067000Y-268157500D03*
D17*
X206419000Y-233804000D03*
D18*
X206419000Y-236344000D03*
X206419000Y-238884000D03*
X206419000Y-241424000D03*
X206419000Y-243964000D03*
X206419000Y-246504000D03*
X206419000Y-249044000D03*
X206419000Y-251584000D03*
X206419000Y-254124000D03*
X206419000Y-256664000D03*
D17*
X367137500Y-80197500D03*
D18*
X369677500Y-80197500D03*
X372217500Y-80197500D03*
X374757500Y-80197500D03*
X377297500Y-80197500D03*
X379837500Y-80197500D03*
X382377500Y-80197500D03*
X384917500Y-80197500D03*
X387457500Y-80197500D03*
X389997500Y-80197500D03*
D17*
X81324000Y-57274000D03*
D18*
X78784000Y-57274000D03*
X76244000Y-57274000D03*
X73704000Y-57274000D03*
X71164000Y-57274000D03*
X68624000Y-57274000D03*
X66084000Y-57274000D03*
X63544000Y-57274000D03*
X61004000Y-57274000D03*
X58464000Y-57274000D03*
D17*
X81324000Y-60449000D03*
D18*
X78784000Y-60449000D03*
X76244000Y-60449000D03*
X73704000Y-60449000D03*
X71164000Y-60449000D03*
X68624000Y-60449000D03*
X66084000Y-60449000D03*
X63544000Y-60449000D03*
X61004000Y-60449000D03*
X58464000Y-60449000D03*
D17*
X176256500Y-59750500D03*
D18*
X173716500Y-59750500D03*
X171176500Y-59750500D03*
X168636500Y-59750500D03*
X166096500Y-59750500D03*
X163556500Y-59750500D03*
X161016500Y-59750500D03*
X158476500Y-59750500D03*
X155936500Y-59750500D03*
X153396500Y-59750500D03*
D13*
X309035000Y-137538000D03*
D14*
X309035000Y-140078000D03*
X309035000Y-142618000D03*
X309035000Y-145158000D03*
X309035000Y-147698000D03*
X309035000Y-150238000D03*
X309035000Y-152778000D03*
X316655000Y-152778000D03*
X316655000Y-150238000D03*
X316655000Y-147698000D03*
X316655000Y-145158000D03*
X316655000Y-142618000D03*
X316655000Y-140078000D03*
X316655000Y-137538000D03*
D11*
X322370000Y-81467500D03*
D12*
X319830000Y-81467500D03*
X317290000Y-81467500D03*
X314750000Y-81467500D03*
X312210000Y-81467500D03*
X309670000Y-81467500D03*
X307130000Y-81467500D03*
X304590000Y-81467500D03*
X304590000Y-89087500D03*
X307130000Y-89087500D03*
X309670000Y-89087500D03*
X312210000Y-89087500D03*
X314750000Y-89087500D03*
X317290000Y-89087500D03*
X319830000Y-89087500D03*
X322370000Y-89087500D03*
D13*
X224897500Y-236344000D03*
D14*
X224897500Y-238884000D03*
X224897500Y-241424000D03*
X224897500Y-243964000D03*
X224897500Y-246504000D03*
X224897500Y-249044000D03*
X224897500Y-251584000D03*
X224897500Y-254124000D03*
X232517500Y-254124000D03*
X232517500Y-251584000D03*
X232517500Y-249044000D03*
X232517500Y-246504000D03*
X232517500Y-243964000D03*
X232517500Y-241424000D03*
X232517500Y-238884000D03*
X232517500Y-236344000D03*
D13*
X189210500Y-245297500D03*
D14*
X189210500Y-247837500D03*
X189210500Y-250377500D03*
X189210500Y-252917500D03*
X189210500Y-255457500D03*
X189210500Y-257997500D03*
X189210500Y-260537500D03*
X189210500Y-263077500D03*
X189210500Y-265617500D03*
X189210500Y-268157500D03*
X196830500Y-268157500D03*
X196830500Y-265617500D03*
X196830500Y-263077500D03*
X196830500Y-260537500D03*
X196830500Y-257997500D03*
X196830500Y-255457500D03*
X196830500Y-252917500D03*
X196830500Y-250377500D03*
X196830500Y-247837500D03*
X196830500Y-245297500D03*
D13*
X211499000Y-233804000D03*
D14*
X211499000Y-236344000D03*
X211499000Y-238884000D03*
X211499000Y-241424000D03*
X211499000Y-243964000D03*
X211499000Y-246504000D03*
X211499000Y-249044000D03*
X211499000Y-251584000D03*
X211499000Y-254124000D03*
X211499000Y-256664000D03*
X219119000Y-256664000D03*
X219119000Y-254124000D03*
X219119000Y-251584000D03*
X219119000Y-249044000D03*
X219119000Y-246504000D03*
X219119000Y-243964000D03*
X219119000Y-241424000D03*
X219119000Y-238884000D03*
X219119000Y-236344000D03*
X219119000Y-233804000D03*
D11*
X319830000Y-68072000D03*
D12*
X317290000Y-68072000D03*
X314750000Y-68072000D03*
X312210000Y-68072000D03*
X309670000Y-68072000D03*
X307130000Y-68072000D03*
X304590000Y-68072000D03*
X304590000Y-75692000D03*
X307130000Y-75692000D03*
X309670000Y-75692000D03*
X312210000Y-75692000D03*
X314750000Y-75692000D03*
X317290000Y-75692000D03*
X319830000Y-75692000D03*
D11*
X319830000Y-102486000D03*
D12*
X317290000Y-102486000D03*
X314750000Y-102486000D03*
X312210000Y-102486000D03*
X309670000Y-102486000D03*
X307130000Y-102486000D03*
X304590000Y-102486000D03*
X304590000Y-110106000D03*
X307130000Y-110106000D03*
X309670000Y-110106000D03*
X312210000Y-110106000D03*
X314750000Y-110106000D03*
X317290000Y-110106000D03*
X319830000Y-110106000D03*
D11*
X222272643Y-78927500D03*
D12*
X219732643Y-78927500D03*
X217192643Y-78927500D03*
X214652643Y-78927500D03*
X212112643Y-78927500D03*
X209572643Y-78927500D03*
X207032643Y-78927500D03*
X207032643Y-86547500D03*
X209572643Y-86547500D03*
X212112643Y-86547500D03*
X214652643Y-86547500D03*
X217192643Y-86547500D03*
X219732643Y-86547500D03*
X222272643Y-86547500D03*
D11*
X222272643Y-64894000D03*
D12*
X219732643Y-64894000D03*
X217192643Y-64894000D03*
X214652643Y-64894000D03*
X212112643Y-64894000D03*
X209572643Y-64894000D03*
X207032643Y-64894000D03*
X207032643Y-72514000D03*
X209572643Y-72514000D03*
X212112643Y-72514000D03*
X214652643Y-72514000D03*
X217192643Y-72514000D03*
X219732643Y-72514000D03*
X222272643Y-72514000D03*
D19*
X251714000Y-155956000D03*
D22*
X251714000Y-143256000D03*
D19*
X211455000Y-143256000D03*
D25*
X211455000Y-155956000D03*
D19*
X213995000Y-143256000D03*
D25*
X213995000Y-155956000D03*
D19*
X216535000Y-143256000D03*
D25*
X216535000Y-155956000D03*
D19*
X272161000Y-133677200D03*
D22*
X272161000Y-123517200D03*
D19*
X109474000Y-64854666D03*
D27*
X119634000Y-64854666D03*
D19*
X109474000Y-62272333D03*
D27*
X119634000Y-62272333D03*
D19*
X119634000Y-59690000D03*
D18*
X109474000Y-59690000D03*
D19*
X109474000Y-67436998D03*
D27*
X119634000Y-67436998D03*
D28*
X48069500Y-114503200D03*
X48069500Y-238506000D03*
D29*
X35013900Y-272008600D03*
X206819500Y-272008600D03*
X367271300Y-49504600D03*
X367271300Y-144018000D03*
D19*
X154110001Y-154052001D03*
D18*
X164270001Y-154052001D03*
D19*
X126112001Y-136846999D03*
D22*
X126112001Y-126686999D03*
D19*
X187242000Y-76324000D03*
D18*
X187242000Y-89024000D03*
D19*
X189782000Y-76324000D03*
D18*
X189782000Y-89024000D03*
D19*
X192322000Y-89024000D03*
D18*
X192322000Y-76324000D03*
D19*
X197402000Y-76324000D03*
D18*
X197402000Y-89024000D03*
D19*
X194862000Y-76324000D03*
D18*
X194862000Y-89024000D03*
D19*
X199942000Y-89024000D03*
D18*
X199942000Y-76324000D03*
D19*
X202482000Y-89024000D03*
D18*
X202482000Y-76324000D03*
D19*
X297434000Y-117094000D03*
D18*
X284734000Y-117094000D03*
D19*
X297434000Y-119634000D03*
D18*
X284734000Y-119634000D03*
D19*
X284734000Y-114554000D03*
D27*
X297434000Y-114554000D03*
D19*
X284734000Y-112014000D03*
D27*
X297434000Y-112014000D03*
D19*
X136241001Y-110684999D03*
D18*
X136241001Y-97984999D03*
D19*
X140081000Y-110684999D03*
D18*
X140081000Y-97984999D03*
D19*
X147701000Y-110684999D03*
D18*
X147701000Y-97984999D03*
D19*
X143891000Y-110684999D03*
D18*
X143891000Y-97984999D03*
D30*
X315468000Y-132461000D03*
D31*
X312928000Y-132461000D03*
X310388000Y-132461000D03*
D30*
X302641000Y-151066500D03*
D31*
X300101000Y-151066500D03*
X297561000Y-151066500D03*
D30*
X328168000Y-151066500D03*
D31*
X325628000Y-151066500D03*
X323088000Y-151066500D03*
D30*
X189807000Y-62865000D03*
D31*
X187267000Y-62865000D03*
X184727000Y-62865000D03*
D30*
X202565000Y-62865000D03*
D31*
X200025000Y-62865000D03*
X197485000Y-62865000D03*
D30*
X202565000Y-71247000D03*
D31*
X200025000Y-71247000D03*
X197485000Y-71247000D03*
D30*
X307721000Y-118999000D03*
D31*
X305181000Y-118999000D03*
X302641000Y-118999000D03*
D19*
X304605001Y-113284000D03*
D18*
X317305001Y-113284000D03*
D19*
X50752999Y-128397000D03*
X48212999Y-128397000D03*
X45672999Y-128397000D03*
X50752999Y-132334000D03*
X48212999Y-132334000D03*
X45672999Y-132334000D03*
X50752999Y-136271000D03*
X48212999Y-136271000D03*
X45672999Y-136271000D03*
X303911000Y-61595000D03*
D18*
X303911000Y-48895000D03*
D19*
X320548000Y-61642000D03*
D18*
X320548000Y-48942000D03*
D19*
X301371000Y-61595000D03*
D18*
X301371000Y-48895000D03*
D19*
X306451000Y-48895000D03*
D18*
X306451000Y-61595000D03*
D19*
X308991000Y-48895000D03*
D18*
X308991000Y-61595000D03*
D19*
X323088000Y-48942000D03*
D18*
X323088000Y-61642000D03*
D19*
X325628000Y-48942000D03*
D25*
X325628000Y-61642000D03*
D19*
X324358000Y-110106000D03*
D22*
X324358000Y-99946000D03*
D19*
X324358000Y-124139500D03*
D22*
X324358000Y-113979500D03*
D30*
X65500000Y-45705000D03*
X65500000Y-43800000D03*
X65500000Y-41895000D03*
D32*
X38144000Y-67434000D03*
D33*
X40684000Y-67434000D03*
X43224000Y-67434000D03*
X45764000Y-67434000D03*
X48304000Y-67434000D03*
X50844000Y-67434000D03*
X53384000Y-67434000D03*
X55924000Y-67434000D03*
X58464000Y-67434000D03*
X61004000Y-67434000D03*
X63544000Y-67434000D03*
X66084000Y-67434000D03*
X68624000Y-67434000D03*
X71164000Y-67434000D03*
X73704000Y-67434000D03*
X76244000Y-67434000D03*
X78784000Y-67434000D03*
X81324000Y-67434000D03*
X83864000Y-67434000D03*
X86404000Y-67434000D03*
X88944000Y-67434000D03*
D34*
X91484000Y-67434000D03*
D19*
X236982000Y-71387500D03*
D18*
X236982000Y-81547500D03*
D19*
X326263000Y-91440000D03*
D18*
X326263000Y-81280000D03*
D19*
X324231000Y-75692000D03*
D18*
X324231000Y-65532000D03*
D19*
X222504000Y-45563000D03*
X222504000Y-43023000D03*
X222504000Y-40483000D03*
X214884000Y-45563000D03*
X214884000Y-43023000D03*
X214884000Y-40483000D03*
X218694000Y-45563000D03*
X218694000Y-43023000D03*
X218694000Y-40483000D03*
X211074000Y-45563000D03*
X211074000Y-43023000D03*
X211074000Y-40483000D03*
X207264000Y-45563000D03*
X207264000Y-43023000D03*
X207264000Y-40483000D03*
X203454000Y-45563000D03*
X203454000Y-43023000D03*
X203454000Y-40483000D03*
X252984000Y-45563000D03*
X252984000Y-43023000D03*
X252984000Y-40483000D03*
X256794000Y-45563000D03*
X256794000Y-43023000D03*
X256794000Y-40483000D03*
X260604000Y-45563000D03*
X260604000Y-43023000D03*
X260604000Y-40483000D03*
X264414000Y-45563000D03*
X264414000Y-43023000D03*
X264414000Y-40483000D03*
X268224000Y-45563000D03*
X268224000Y-43023000D03*
X268224000Y-40483000D03*
X272034000Y-45563000D03*
X272034000Y-43023000D03*
X272034000Y-40483000D03*
X249174000Y-45563000D03*
X249174000Y-43023000D03*
X249174000Y-40483000D03*
X245364000Y-45563000D03*
X245364000Y-43023000D03*
X245364000Y-40483000D03*
X241554000Y-45563000D03*
X241554000Y-43023000D03*
X241554000Y-40483000D03*
X237744000Y-45563000D03*
X237744000Y-43023000D03*
X237744000Y-40483000D03*
X233934000Y-45563000D03*
X233934000Y-43023000D03*
X233934000Y-40483000D03*
X230124000Y-45563000D03*
X230124000Y-43023000D03*
X230124000Y-40483000D03*
X226314000Y-45563000D03*
X226314000Y-43023000D03*
X226314000Y-40483000D03*
X291084000Y-45563000D03*
X291084000Y-43023000D03*
X291084000Y-40483000D03*
X287274000Y-45563000D03*
X287274000Y-43023000D03*
X287274000Y-40483000D03*
X283464000Y-45563000D03*
X283464000Y-43023000D03*
X283464000Y-40483000D03*
X146431000Y-154051000D03*
X148971000Y-154051000D03*
X151511000Y-154051000D03*
X106299000Y-145859500D03*
X106299000Y-143319500D03*
X106299000Y-140779500D03*
X296926000Y-50165000D03*
X296926000Y-47625000D03*
X296926000Y-45085000D03*
X316738000Y-50165000D03*
X316738000Y-47625000D03*
X316738000Y-45085000D03*
X91567000Y-115189000D03*
X89027000Y-115189000D03*
X86487000Y-115189000D03*
X71247000Y-119824500D03*
D18*
X61087000Y-119824500D03*
D19*
X61087000Y-123634500D03*
D27*
X71247000Y-123634500D03*
D19*
X61087000Y-127444500D03*
D27*
X71247000Y-127444500D03*
D19*
X61087000Y-135001000D03*
D27*
X71247000Y-135001000D03*
D19*
X61087000Y-131254500D03*
D18*
X71247000Y-131254500D03*
D32*
X234442000Y-58544000D03*
D33*
X231902000Y-58544000D03*
X229362000Y-58544000D03*
X226822000Y-58544000D03*
D32*
X234442000Y-53340000D03*
D33*
X231902000Y-53340000D03*
X229362000Y-53340000D03*
X226822000Y-53340000D03*
D32*
X212090000Y-113411000D03*
D33*
X214630000Y-113411000D03*
X217170000Y-113411000D03*
D34*
X219710000Y-113411000D03*
D19*
X189782000Y-68132001D03*
X187242000Y-68132001D03*
X184702000Y-68132001D03*
X184702000Y-72517000D03*
X187242000Y-72517000D03*
X189782000Y-72517000D03*
X328993500Y-81280000D03*
D18*
X328993500Y-91440000D03*
D19*
X97409000Y-73152000D03*
X97409000Y-75692000D03*
X97409000Y-78232000D03*
X124777500Y-155321000D03*
D18*
X124777500Y-140081000D03*
D19*
X124079000Y-65532000D03*
D18*
X124079000Y-75692000D03*
D19*
X82677000Y-113919000D03*
D18*
X82677000Y-103759000D03*
D19*
X229362000Y-75164020D03*
D22*
X229362000Y-62464020D03*
D19*
X306578000Y-170010664D03*
D27*
X319278000Y-170010664D03*
D19*
X319278000Y-173206830D03*
D18*
X306578000Y-173206830D03*
D19*
X319278000Y-163618332D03*
D26*
X306578000Y-163618332D03*
D19*
X323088000Y-161628666D03*
D18*
X335788000Y-161628666D03*
D19*
X323088000Y-155194000D03*
D18*
X335788000Y-155194000D03*
D19*
X312229500Y-53340000D03*
D18*
X312229500Y-38100000D03*
D19*
X323088000Y-158411333D03*
D18*
X335788000Y-158411333D03*
D19*
X335788000Y-164846000D03*
D18*
X323088000Y-164846000D03*
D19*
X126619000Y-50800000D03*
D18*
X126619000Y-40640000D03*
D32*
X96710500Y-67434000D03*
D33*
X99250500Y-67434000D03*
X101790500Y-67434000D03*
D30*
X110109000Y-172085000D03*
X110109000Y-173990000D03*
X110109000Y-175895000D03*
X171323000Y-53213000D03*
X169418000Y-53213000D03*
X167513000Y-53213000D03*
X339598000Y-128651000D03*
X339598000Y-130556000D03*
X305181000Y-46101000D03*
X303276000Y-46101000D03*
X203581000Y-236854000D03*
X201676000Y-236854000D03*
X203581000Y-235054000D03*
X201676000Y-235054000D03*
D19*
X86487000Y-127444500D03*
X78867000Y-127444500D03*
X76327000Y-127444500D03*
X73787000Y-127444500D03*
X86487000Y-131254500D03*
X78867000Y-131254500D03*
X76327000Y-131254500D03*
X73787000Y-131254500D03*
D35*
X174000080Y-32636000D03*
X126999920Y-32636000D03*
D36*
X133880780Y-34269220D03*
X136649380Y-34269220D03*
X139420520Y-34269220D03*
X142189120Y-34269220D03*
X144960260Y-34269220D03*
X147728860Y-34269220D03*
X150500000Y-34269220D03*
X153271140Y-34269220D03*
X156039740Y-34269220D03*
X158810880Y-34269220D03*
X161579480Y-34269220D03*
X164350620Y-34269220D03*
X167119220Y-34269220D03*
X135265080Y-31002780D03*
X138036220Y-31002780D03*
X140804820Y-31002780D03*
X143575960Y-31002780D03*
X146344560Y-31002780D03*
X149115700Y-31002780D03*
X151884300Y-31002780D03*
X154655440Y-31002780D03*
X157424040Y-31002780D03*
X160195180Y-31002780D03*
X162963780Y-31002780D03*
X165734920Y-31002780D03*
D35*
X288615780Y-32636000D03*
X244473120Y-32699500D03*
D37*
X251265080Y-34269220D03*
X254036220Y-34269220D03*
X256804820Y-34269220D03*
X259575960Y-34269220D03*
X262344560Y-34269220D03*
X265115700Y-34269220D03*
X267886840Y-34269220D03*
X270655440Y-34269220D03*
X273426580Y-34269220D03*
X276195180Y-34269220D03*
X278966320Y-34269220D03*
X281734920Y-34269220D03*
X252651920Y-31002780D03*
X255420520Y-31002780D03*
X258191660Y-31002780D03*
X260960260Y-31002780D03*
X263731400Y-31002780D03*
X266500000Y-31002780D03*
X269271140Y-31002780D03*
X272039740Y-31002780D03*
X274810880Y-31002780D03*
X277579480Y-31002780D03*
X280350620Y-31002780D03*
D19*
X323088000Y-131826000D03*
D18*
X335788000Y-131826000D03*
D19*
X302641000Y-161671000D03*
D18*
X289941000Y-161671000D03*
D19*
X302641000Y-155321000D03*
D18*
X289941000Y-155321000D03*
D19*
X302641000Y-147773000D03*
D18*
X289941000Y-147773000D03*
D19*
X323122001Y-141351000D03*
D18*
X335822001Y-141351000D03*
D19*
X335788000Y-128651000D03*
D18*
X323088000Y-128651000D03*
D19*
X86487000Y-123630999D03*
X78867000Y-123630999D03*
X76327000Y-123630999D03*
X73787000Y-123630999D03*
X86487000Y-119824500D03*
X78867000Y-119824500D03*
X76327000Y-119824500D03*
X73787000Y-119824500D03*
X302641000Y-134366000D03*
D18*
X289941000Y-134366000D03*
D19*
X289941000Y-131191000D03*
D18*
X302641000Y-131191000D03*
D19*
X335788000Y-135001000D03*
D18*
X323088000Y-135001000D03*
D19*
X302641000Y-158496000D03*
D18*
X289941000Y-158496000D03*
D19*
X289941000Y-141375000D03*
D18*
X302641000Y-141375000D03*
D19*
X302641000Y-144574000D03*
D18*
X289941000Y-144574000D03*
D19*
X289941000Y-138176000D03*
D18*
X302641000Y-138176000D03*
D19*
X335788000Y-147701000D03*
D18*
X323088000Y-147701000D03*
D19*
X323088000Y-144526000D03*
D18*
X335788000Y-144526000D03*
D19*
X323088000Y-138176000D03*
D18*
X335788000Y-138176000D03*
D32*
X185972000Y-57909000D03*
D33*
X188512000Y-57909000D03*
X191052000Y-57909000D03*
X193592000Y-57909000D03*
X198672000Y-57909000D03*
X201212000Y-57909000D03*
X203752000Y-57909000D03*
D30*
X303911000Y-123571000D03*
X305816000Y-123571000D03*
D19*
X116459000Y-170942000D03*
D18*
X116459000Y-160782000D03*
D38*
X120904000Y-47038500D03*
D39*
X115824000Y-47038500D03*
X110744000Y-47038500D03*
X105664000Y-47038500D03*
X105664000Y-54038500D03*
X110744000Y-54038500D03*
X115824000Y-54038500D03*
X120904000Y-54038500D03*
D19*
X256794000Y-143256000D03*
D18*
X256794000Y-155956000D03*
D19*
X264414000Y-143256000D03*
D18*
X264414000Y-155956000D03*
D19*
X138176000Y-143383000D03*
D18*
X138176000Y-156083000D03*
D19*
X140716000Y-143383000D03*
D18*
X140716000Y-156083000D03*
D19*
X135636000Y-143383000D03*
D18*
X135636000Y-156083000D03*
D19*
X130556000Y-143383000D03*
D18*
X130556000Y-156083000D03*
D19*
X133096000Y-143383000D03*
D18*
X133096000Y-156083000D03*
D19*
X117792500Y-79565500D03*
D18*
X105092500Y-79565500D03*
D19*
X208915000Y-143256000D03*
D18*
X208915000Y-155956000D03*
D19*
X259334000Y-143256000D03*
D18*
X259334000Y-155956000D03*
D19*
X254254000Y-143256000D03*
D18*
X254254000Y-155956000D03*
D19*
X219075000Y-155956000D03*
D18*
X219075000Y-143256000D03*
D19*
X81407000Y-53975000D03*
X81407000Y-46355000D03*
X81407000Y-43815000D03*
X81407000Y-41275000D03*
X77597000Y-53975000D03*
X77597000Y-46355000D03*
X77597000Y-43815000D03*
X77597000Y-41275000D03*
X73787000Y-53975000D03*
X73787000Y-46355000D03*
X73787000Y-43815000D03*
X73787000Y-41275000D03*
X69977000Y-53975000D03*
X69977000Y-46355000D03*
X69977000Y-43815000D03*
X69977000Y-41275000D03*
X286131000Y-131191000D03*
X286131000Y-138811000D03*
X286131000Y-141351000D03*
X286131000Y-143891000D03*
X282321000Y-131191000D03*
X282321000Y-138811000D03*
X282321000Y-141351000D03*
X282321000Y-143891000D03*
X379857000Y-53340000D03*
X379857000Y-45720000D03*
X379857000Y-43180000D03*
X379857000Y-40640000D03*
X88455500Y-53975000D03*
X88455500Y-46355000D03*
X88455500Y-43815000D03*
X88455500Y-41275000D03*
X49530000Y-53975000D03*
X49530000Y-46355000D03*
X49530000Y-43815000D03*
X49530000Y-41275000D03*
X53340000Y-53975000D03*
X53340000Y-46355000D03*
X53340000Y-43815000D03*
X53340000Y-41275000D03*
X57150000Y-53975000D03*
X57150000Y-46355000D03*
X57150000Y-43815000D03*
X57150000Y-41275000D03*
X354965000Y-53340000D03*
X354965000Y-45720000D03*
X354965000Y-43180000D03*
X354965000Y-40640000D03*
X383667000Y-76327000D03*
X383667000Y-68707000D03*
X383667000Y-66167000D03*
X383667000Y-63627000D03*
X379857000Y-76327000D03*
X379857000Y-68707000D03*
X379857000Y-66167000D03*
X379857000Y-63627000D03*
X390017000Y-53340000D03*
X390017000Y-45720000D03*
X390017000Y-43180000D03*
X390017000Y-40640000D03*
X376047000Y-76327000D03*
X376047000Y-68707000D03*
X376047000Y-66167000D03*
X376047000Y-63627000D03*
X390017000Y-76327000D03*
X390017000Y-68707000D03*
X390017000Y-66167000D03*
X390017000Y-63627000D03*
X383667000Y-53340000D03*
X383667000Y-45720000D03*
X383667000Y-43180000D03*
X383667000Y-40640000D03*
X369697000Y-76327000D03*
X369697000Y-68707000D03*
X369697000Y-66167000D03*
X369697000Y-63627000D03*
X347218000Y-71247000D03*
X347218000Y-63627000D03*
X347218000Y-61087000D03*
X347218000Y-58547000D03*
X347218000Y-53340000D03*
X347218000Y-45720000D03*
X347218000Y-43180000D03*
X347218000Y-40640000D03*
X343408000Y-71247000D03*
X343408000Y-63627000D03*
X343408000Y-61087000D03*
X343408000Y-58547000D03*
X343408000Y-53340000D03*
X343408000Y-45720000D03*
X343408000Y-43180000D03*
X343408000Y-40640000D03*
X351028000Y-71247000D03*
X351028000Y-63627000D03*
X351028000Y-61087000D03*
X351028000Y-58547000D03*
X329438000Y-53340000D03*
X329438000Y-45720000D03*
X329438000Y-43180000D03*
X329438000Y-40640000D03*
X335788000Y-53340000D03*
X335788000Y-45720000D03*
X335788000Y-43180000D03*
X335788000Y-40640000D03*
X60960000Y-53975000D03*
X60960000Y-46355000D03*
X60960000Y-43815000D03*
X60960000Y-41275000D03*
X322326000Y-96774000D03*
X314706000Y-96774000D03*
X312166000Y-96774000D03*
X309626000Y-96774000D03*
X322326000Y-92964000D03*
X314706000Y-92964000D03*
X312166000Y-92964000D03*
X309626000Y-92964000D03*
X295529000Y-92964000D03*
X287909000Y-92964000D03*
X285369000Y-92964000D03*
X282829000Y-92964000D03*
X295529000Y-96774000D03*
X287909000Y-96774000D03*
X285369000Y-96774000D03*
X282829000Y-96774000D03*
X279672001Y-53220000D03*
X279672001Y-45600000D03*
X279672001Y-43060000D03*
X279672001Y-40520000D03*
X275844000Y-53213000D03*
X275844000Y-45593000D03*
X275844000Y-43053000D03*
X275844000Y-40513000D03*
D35*
X389699500Y-32636000D03*
X364710980Y-32636000D03*
D36*
X382744980Y-34154920D03*
X379976380Y-34154920D03*
X377205240Y-34154920D03*
X374434100Y-34154920D03*
X371665500Y-34154920D03*
X381360680Y-31117080D03*
X378589540Y-31117080D03*
X375820940Y-31117080D03*
X373049800Y-31117080D03*
D35*
X353044760Y-32636000D03*
X328056240Y-32636000D03*
D36*
X346090240Y-34154920D03*
X343321640Y-34154920D03*
X340550500Y-34154920D03*
X337779360Y-34154920D03*
X335010760Y-34154920D03*
X344705940Y-31117080D03*
X341934800Y-31117080D03*
X339166200Y-31117080D03*
X336395060Y-31117080D03*
D35*
X232500080Y-32636000D03*
X185499920Y-32636000D03*
D36*
X225619220Y-34269220D03*
X222850620Y-34269220D03*
X220079480Y-34269220D03*
X217310880Y-34269220D03*
X214539740Y-34269220D03*
X211771140Y-34269220D03*
X209000000Y-34269220D03*
X206228860Y-34269220D03*
X203460260Y-34269220D03*
X200689120Y-34269220D03*
X197920520Y-34269220D03*
X195149380Y-34269220D03*
X192380780Y-34269220D03*
X224234920Y-31002780D03*
X221463780Y-31002780D03*
X218695180Y-31002780D03*
X215924040Y-31002780D03*
X213155440Y-31002780D03*
X210384300Y-31002780D03*
X207615700Y-31002780D03*
X204844560Y-31002780D03*
X202075960Y-31002780D03*
X199304820Y-31002780D03*
X196536220Y-31002780D03*
X193765080Y-31002780D03*
D35*
X94115780Y-32636000D03*
X49973120Y-32699500D03*
D37*
X87234920Y-34269220D03*
X84466320Y-34269220D03*
X81695180Y-34269220D03*
X78926580Y-34269220D03*
X76155440Y-34269220D03*
X73386840Y-34269220D03*
X70615700Y-34269220D03*
X67844560Y-34269220D03*
X65075960Y-34269220D03*
X62304820Y-34269220D03*
X59536220Y-34269220D03*
X56765080Y-34269220D03*
X85850620Y-31002780D03*
X83079480Y-31002780D03*
X80310880Y-31002780D03*
X77539740Y-31002780D03*
X74771140Y-31002780D03*
X72000000Y-31002780D03*
X69231400Y-31002780D03*
X66460260Y-31002780D03*
X63691660Y-31002780D03*
X60920520Y-31002780D03*
X58151920Y-31002780D03*
D19*
X214630000Y-53340000D03*
X204343000Y-53340000D03*
X201803000Y-53340000D03*
X199263000Y-53340000D03*
X180213000Y-53340000D03*
X190500000Y-53340000D03*
X193040000Y-53340000D03*
X195580000Y-53340000D03*
X147129500Y-53403500D03*
X136842500Y-53403500D03*
X134302500Y-53403500D03*
X131762500Y-53403500D03*
D40*
X270129000Y-169926000D03*
D41*
X250129000Y-169926000D03*
D17*
X288798000Y-172466000D03*
D19*
X293798000Y-172466000D03*
D17*
X184702000Y-89027000D03*
D22*
X184702000Y-76324000D03*
D17*
X285750000Y-167386000D03*
D18*
X273050000Y-167386000D03*
D17*
X285750000Y-169926000D03*
D18*
X273050000Y-169926000D03*
D30*
X249047000Y-154686000D03*
X247142000Y-154686000D03*
D19*
X66167000Y-263017000D03*
D18*
X66167000Y-250317000D03*
D19*
X68707000Y-263017000D03*
D18*
X68707000Y-250317000D03*
D19*
X273050000Y-172466000D03*
D18*
X285750000Y-172466000D03*
D19*
X235077000Y-224790000D03*
D18*
X235077000Y-212090000D03*
D19*
X261874000Y-143256000D03*
D18*
X261874000Y-155956000D03*
D19*
X221615000Y-155956000D03*
D18*
X221615000Y-143256000D03*
D11*
X226123500Y-206946500D03*
D12*
X223583500Y-206946500D03*
X221043500Y-206946500D03*
X218503500Y-206946500D03*
X215963500Y-206946500D03*
X213423500Y-206946500D03*
X210883500Y-206946500D03*
X208343500Y-206946500D03*
X205803500Y-206946500D03*
X205803500Y-214566500D03*
X208343500Y-214566500D03*
X210883500Y-214566500D03*
X213423500Y-214566500D03*
X215963500Y-214566500D03*
X218503500Y-214566500D03*
X221043500Y-214566500D03*
X223583500Y-214566500D03*
X226123500Y-214566500D03*
D17*
X45720000Y-156337000D03*
D18*
X45720000Y-158877000D03*
X45720000Y-161417000D03*
X45720000Y-163957000D03*
X45720000Y-166497000D03*
X45720000Y-169037000D03*
X45720000Y-171577000D03*
X45720000Y-174117000D03*
X45720000Y-176657000D03*
X45720000Y-179197000D03*
D17*
X80137000Y-151257000D03*
D18*
X80137000Y-153797000D03*
X80137000Y-156337000D03*
X80137000Y-158877000D03*
X80137000Y-161417000D03*
X80137000Y-163957000D03*
X80137000Y-166497000D03*
X80137000Y-169037000D03*
X80137000Y-171577000D03*
D25*
X80137000Y-174117000D03*
D17*
X45720000Y-199517000D03*
D18*
X45720000Y-202057000D03*
X45720000Y-204597000D03*
X45720000Y-207137000D03*
X45720000Y-209677000D03*
X45720000Y-212217000D03*
X45720000Y-214757000D03*
X45720000Y-217297000D03*
X45720000Y-219837000D03*
X45720000Y-222377000D03*
D17*
X184023000Y-223393000D03*
D18*
X181483000Y-223393000D03*
X178943000Y-223393000D03*
X176403000Y-223393000D03*
X173863000Y-223393000D03*
X171323000Y-223393000D03*
X168783000Y-223393000D03*
X166243000Y-223393000D03*
X163703000Y-223393000D03*
X161163000Y-223393000D03*
D17*
X80772000Y-207137000D03*
D18*
X80772000Y-209677000D03*
X80772000Y-212217000D03*
X80772000Y-214757000D03*
X80772000Y-217297000D03*
X80772000Y-219837000D03*
X80772000Y-222377000D03*
X80772000Y-224917000D03*
X80772000Y-227457000D03*
D25*
X80772000Y-229997000D03*
D17*
X185293000Y-226187000D03*
D18*
X182753000Y-226187000D03*
X180213000Y-226187000D03*
X177673000Y-226187000D03*
X175133000Y-226187000D03*
X172593000Y-226187000D03*
X170053000Y-226187000D03*
X167513000Y-226187000D03*
X164973000Y-226187000D03*
X162433000Y-226187000D03*
D17*
X247846400Y-143256000D03*
D18*
X245306400Y-143256000D03*
X242766400Y-143256000D03*
X240226400Y-143256000D03*
X237686400Y-143256000D03*
X235146400Y-143256000D03*
X232606400Y-143256000D03*
X230066400Y-143256000D03*
X227526400Y-143256000D03*
D26*
X224986400Y-143256000D03*
D19*
X137541000Y-57848500D03*
D18*
X150241000Y-57848500D03*
D19*
X137541000Y-61658500D03*
D18*
X150241000Y-61658500D03*
D17*
X256730500Y-117157500D03*
D18*
X254190500Y-117157500D03*
X251650500Y-117157500D03*
X249110500Y-117157500D03*
X246570500Y-117157500D03*
X244030500Y-117157500D03*
X241490500Y-117157500D03*
X238950500Y-117157500D03*
X236410500Y-117157500D03*
X233870500Y-117157500D03*
D17*
X76327000Y-151257000D03*
D18*
X76327000Y-153797000D03*
X76327000Y-156337000D03*
X76327000Y-158877000D03*
X76327000Y-161417000D03*
X76327000Y-163957000D03*
X76327000Y-166497000D03*
X76327000Y-169037000D03*
X76327000Y-171577000D03*
D25*
X76327000Y-174117000D03*
D17*
X59182000Y-265557000D03*
D18*
X59182000Y-263017000D03*
X59182000Y-260477000D03*
X59182000Y-257937000D03*
X59182000Y-255397000D03*
X59182000Y-252857000D03*
X59182000Y-250317000D03*
X59182000Y-247777000D03*
X59182000Y-245237000D03*
D22*
X59182000Y-242697000D03*
D13*
X91694000Y-176657000D03*
D14*
X91694000Y-179197000D03*
X91694000Y-181737000D03*
X91694000Y-184277000D03*
X91694000Y-186817000D03*
X91694000Y-189357000D03*
X91694000Y-191897000D03*
X91694000Y-194437000D03*
X91694000Y-196977000D03*
X91694000Y-199517000D03*
X91694000Y-202057000D03*
X91694000Y-204597000D03*
X91694000Y-207137000D03*
X91694000Y-209677000D03*
X91694000Y-212217000D03*
X91694000Y-214757000D03*
X91694000Y-217297000D03*
X91694000Y-219837000D03*
X91694000Y-222377000D03*
X91694000Y-224917000D03*
X91694000Y-227457000D03*
X106934000Y-227457000D03*
X106934000Y-224917000D03*
X106934000Y-222377000D03*
X106934000Y-219837000D03*
X106934000Y-217297000D03*
X106934000Y-214757000D03*
X106934000Y-212217000D03*
X106934000Y-209677000D03*
X106934000Y-207137000D03*
X106934000Y-204597000D03*
X106934000Y-202057000D03*
X106934000Y-199517000D03*
X106934000Y-196977000D03*
X106934000Y-194437000D03*
X106934000Y-191897000D03*
X106934000Y-189357000D03*
X106934000Y-186817000D03*
X106934000Y-184277000D03*
X106934000Y-181737000D03*
X106934000Y-179197000D03*
X106934000Y-176657000D03*
D42*
X230065500Y-212090000D03*
X229933500Y-204470000D03*
X232473500Y-212090000D03*
D30*
X233172000Y-154686000D03*
X235077000Y-154686000D03*
X236982000Y-154686000D03*
D13*
X152844500Y-245237000D03*
D14*
X152844500Y-247777000D03*
X152844500Y-250317000D03*
X152844500Y-252857000D03*
X152844500Y-255397000D03*
X152844500Y-257937000D03*
X152844500Y-260477000D03*
X152844500Y-263017000D03*
X152844500Y-265557000D03*
X152844500Y-268097000D03*
X160464500Y-268097000D03*
X160464500Y-265557000D03*
X160464500Y-263017000D03*
X160464500Y-260477000D03*
X160464500Y-257937000D03*
X160464500Y-255397000D03*
X160464500Y-252857000D03*
X160464500Y-250317000D03*
X160464500Y-247777000D03*
X160464500Y-245237000D03*
D13*
X127381000Y-245237000D03*
D14*
X127381000Y-247777000D03*
X127381000Y-250317000D03*
X127381000Y-252857000D03*
X127381000Y-255397000D03*
X127381000Y-257937000D03*
X127381000Y-260477000D03*
X127381000Y-263017000D03*
X127381000Y-265557000D03*
X127381000Y-268097000D03*
X135001000Y-268097000D03*
X135001000Y-265557000D03*
X135001000Y-263017000D03*
X135001000Y-260477000D03*
X135001000Y-257937000D03*
X135001000Y-255397000D03*
X135001000Y-252857000D03*
X135001000Y-250317000D03*
X135001000Y-247777000D03*
X135001000Y-245237000D03*
D13*
X101854000Y-245237000D03*
D14*
X101854000Y-247777000D03*
X101854000Y-250317000D03*
X101854000Y-252857000D03*
X101854000Y-255397000D03*
X101854000Y-257937000D03*
X101854000Y-260477000D03*
X101854000Y-263017000D03*
X101854000Y-265557000D03*
X101854000Y-268097000D03*
X109474000Y-268097000D03*
X109474000Y-265557000D03*
X109474000Y-263017000D03*
X109474000Y-260477000D03*
X109474000Y-257937000D03*
X109474000Y-255397000D03*
X109474000Y-252857000D03*
X109474000Y-250317000D03*
X109474000Y-247777000D03*
X109474000Y-245237000D03*
D13*
X76390500Y-245237000D03*
D14*
X76390500Y-247777000D03*
X76390500Y-250317000D03*
X76390500Y-252857000D03*
X76390500Y-255397000D03*
X76390500Y-257937000D03*
X76390500Y-260477000D03*
X76390500Y-263017000D03*
X76390500Y-265557000D03*
X76390500Y-268097000D03*
X84010500Y-268097000D03*
X84010500Y-265557000D03*
X84010500Y-263017000D03*
X84010500Y-260477000D03*
X84010500Y-257937000D03*
X84010500Y-255397000D03*
X84010500Y-252857000D03*
X84010500Y-250317000D03*
X84010500Y-247777000D03*
X84010500Y-245237000D03*
D13*
X164338000Y-245237000D03*
D14*
X164338000Y-247777000D03*
X164338000Y-250317000D03*
X164338000Y-252857000D03*
X164338000Y-255397000D03*
X164338000Y-257937000D03*
X164338000Y-260477000D03*
X164338000Y-263017000D03*
X164338000Y-265557000D03*
X164338000Y-268097000D03*
X171958000Y-268097000D03*
X171958000Y-265557000D03*
X171958000Y-263017000D03*
X171958000Y-260477000D03*
X171958000Y-257937000D03*
X171958000Y-255397000D03*
X171958000Y-252857000D03*
X171958000Y-250317000D03*
X171958000Y-247777000D03*
X171958000Y-245237000D03*
D13*
X138874500Y-245237000D03*
D14*
X138874500Y-247777000D03*
X138874500Y-250317000D03*
X138874500Y-252857000D03*
X138874500Y-255397000D03*
X138874500Y-257937000D03*
X138874500Y-260477000D03*
X138874500Y-263017000D03*
X138874500Y-265557000D03*
X138874500Y-268097000D03*
X146494500Y-268097000D03*
X146494500Y-265557000D03*
X146494500Y-263017000D03*
X146494500Y-260477000D03*
X146494500Y-257937000D03*
X146494500Y-255397000D03*
X146494500Y-252857000D03*
X146494500Y-250317000D03*
X146494500Y-247777000D03*
X146494500Y-245237000D03*
D13*
X113347500Y-245237000D03*
D14*
X113347500Y-247777000D03*
X113347500Y-250317000D03*
X113347500Y-252857000D03*
X113347500Y-255397000D03*
X113347500Y-257937000D03*
X113347500Y-260477000D03*
X113347500Y-263017000D03*
X113347500Y-265557000D03*
X113347500Y-268097000D03*
X120967500Y-268097000D03*
X120967500Y-265557000D03*
X120967500Y-263017000D03*
X120967500Y-260477000D03*
X120967500Y-257937000D03*
X120967500Y-255397000D03*
X120967500Y-252857000D03*
X120967500Y-250317000D03*
X120967500Y-247777000D03*
X120967500Y-245237000D03*
D13*
X87884000Y-245237000D03*
D14*
X87884000Y-247777000D03*
X87884000Y-250317000D03*
X87884000Y-252857000D03*
X87884000Y-255397000D03*
X87884000Y-257937000D03*
X87884000Y-260477000D03*
X87884000Y-263017000D03*
X87884000Y-265557000D03*
X87884000Y-268097000D03*
X95504000Y-268097000D03*
X95504000Y-265557000D03*
X95504000Y-263017000D03*
X95504000Y-260477000D03*
X95504000Y-257937000D03*
X95504000Y-255397000D03*
X95504000Y-252857000D03*
X95504000Y-250317000D03*
X95504000Y-247777000D03*
X95504000Y-245237000D03*
D30*
X227203000Y-242697000D03*
X227203000Y-244602000D03*
X227203000Y-246507000D03*
X229997000Y-247777000D03*
X229997000Y-249682000D03*
X229997000Y-251587000D03*
D32*
X245872000Y-262255000D03*
D33*
X248412000Y-262255000D03*
D43*
X245872000Y-259715000D03*
X248412000Y-259715000D03*
D33*
X245872000Y-257175000D03*
X248412000Y-257175000D03*
X245872000Y-254635000D03*
X248412000Y-254635000D03*
X245872000Y-252095000D03*
X248412000Y-252095000D03*
X245872000Y-249555000D03*
X248412000Y-249555000D03*
X245872000Y-247015000D03*
X248412000Y-247015000D03*
X245872000Y-244475000D03*
X248412000Y-244475000D03*
X245872000Y-241935000D03*
X248412000Y-241935000D03*
X245872000Y-239395000D03*
X248412000Y-239395000D03*
D43*
X245872000Y-236855000D03*
X248412000Y-236855000D03*
D33*
X245872000Y-234315000D03*
X248412000Y-234315000D03*
X245872000Y-231775000D03*
X248412000Y-231775000D03*
X245872000Y-229235000D03*
X248412000Y-229235000D03*
X245872000Y-226695000D03*
X248412000Y-226695000D03*
X245872000Y-224155000D03*
X248412000Y-224155000D03*
X245872000Y-221615000D03*
X248412000Y-221615000D03*
X245872000Y-219075000D03*
X248412000Y-219075000D03*
X245872000Y-216535000D03*
X248412000Y-216535000D03*
X245872000Y-213995000D03*
X248412000Y-213995000D03*
X245872000Y-211455000D03*
X248412000Y-211455000D03*
X245872000Y-208915000D03*
X248412000Y-208915000D03*
X245872000Y-206375000D03*
X248412000Y-206375000D03*
X245872000Y-203835000D03*
X248412000Y-203835000D03*
X245872000Y-201295000D03*
X248412000Y-201295000D03*
X245872000Y-198755000D03*
X248412000Y-198755000D03*
D43*
X245872000Y-196215000D03*
X248412000Y-196215000D03*
D44*
X245872000Y-193675000D03*
D33*
X248412000Y-193675000D03*
D30*
X129305000Y-59700000D03*
X127400000Y-59700000D03*
X125495000Y-59700000D03*
D17*
X285750000Y-175260000D03*
D18*
X273050000Y-175260000D03*
D45*
X316350500Y-29853500D03*
D46*
X320100500Y-33553500D03*
X312600500Y-33553500D03*
D45*
X300500000Y-29853500D03*
D46*
X304250000Y-33553500D03*
X296750000Y-33553500D03*
D45*
X38354000Y-30107500D03*
D46*
X42104000Y-33807500D03*
X34604000Y-33807500D03*
D47*
X116000000Y-38138999D03*
X118500000Y-35638999D03*
X103500000Y-35638999D03*
X103500000Y-40638999D03*
X106000000Y-38138999D03*
X111000000Y-40638999D03*
X118500000Y-40638999D03*
X111000000Y-35638999D03*
D48*
X106000000Y-25638999D03*
D49*
X108500000Y-25638999D03*
X108500000Y-28138999D03*
X111000000Y-25638999D03*
X111000000Y-28138999D03*
X113500000Y-25638999D03*
X113500000Y-28138999D03*
D48*
X116000000Y-25638999D03*
D50*
X96520000Y-59029600D03*
D51*
X96520000Y-54029600D03*
D50*
X38141699Y-53086000D03*
D51*
X43141699Y-53086000D03*
D50*
X122174000Y-119380000D03*
D51*
X117174000Y-119380000D03*
D19*
X44704000Y-41275000D03*
D18*
X32004000Y-41275000D03*
D52*
X282238000Y-58544000D03*
D53*
X282238000Y-61084000D03*
X279698000Y-58544000D03*
X279698000Y-61084000D03*
D54*
X277158000Y-58544000D03*
D53*
X277158000Y-61084000D03*
D55*
X274618000Y-58544000D03*
D53*
X274618000Y-61084000D03*
D56*
X272078000Y-58544000D03*
D53*
X272078000Y-61084000D03*
D55*
X269538000Y-58544000D03*
D53*
X269538000Y-61084000D03*
X266998000Y-58544000D03*
X266998000Y-61084000D03*
X264458000Y-58544000D03*
X264458000Y-61084000D03*
D56*
X261918000Y-58544000D03*
D53*
X261918000Y-61084000D03*
D55*
X259378000Y-58544000D03*
D53*
X259378000Y-61084000D03*
X256838000Y-58544000D03*
X256838000Y-61084000D03*
D56*
X254298000Y-58544000D03*
D53*
X254298000Y-61084000D03*
D55*
X251758000Y-58544000D03*
D53*
X251758000Y-61084000D03*
X249218000Y-58544000D03*
X249218000Y-61084000D03*
X246678000Y-58544000D03*
X246678000Y-61084000D03*
X244138000Y-58544000D03*
X244138000Y-61084000D03*
D54*
X241598000Y-58544000D03*
D53*
X241598000Y-61084000D03*
D17*
X100584000Y-138870999D03*
D19*
X100584000Y-123630999D03*
X92964000Y-123630999D03*
X92964000Y-138870999D03*
D17*
X295656000Y-105918000D03*
D19*
X293156000Y-105918000D03*
D17*
X328232888Y-170010664D03*
D19*
X330732888Y-170010664D03*
D17*
X301117000Y-166814498D03*
D19*
X298617000Y-166814498D03*
D17*
X298706775Y-173863000D03*
D19*
X301206775Y-173863000D03*
D44*
X266998000Y-69024500D03*
D33*
X266998000Y-66484500D03*
X269538000Y-69024500D03*
X269538000Y-66484500D03*
X272078000Y-69024500D03*
X272078000Y-66484500D03*
D44*
X94742000Y-160448001D03*
D33*
X97282000Y-162988001D03*
D43*
X94742000Y-165528001D03*
D33*
X94742000Y-162988001D03*
D44*
X101377750Y-160448001D03*
D33*
X103917750Y-162988001D03*
D43*
X101377750Y-165528001D03*
D33*
X101377750Y-162988001D03*
D44*
X108013500Y-160448001D03*
D33*
X110553500Y-162988001D03*
D43*
X108013500Y-165528001D03*
D33*
X108013500Y-162988001D03*
D57*
X294747000Y-152497000D03*
X294747000Y-150597000D03*
X292247000Y-151547000D03*
X333482000Y-152497000D03*
X333482000Y-150597000D03*
X330982000Y-151547000D03*
D17*
X117094000Y-44450000D03*
D58*
X114554000Y-44450000D03*
X112014000Y-44450000D03*
X109474000Y-44450000D03*
X109474000Y-52070000D03*
X112014000Y-52070000D03*
X114554000Y-52070000D03*
X117094000Y-52070000D03*
D19*
X90424000Y-144526000D03*
D27*
X100584000Y-144526000D03*
D59*
X95214000Y-38417500D03*
X95214000Y-39687500D03*
X95214000Y-40957500D03*
X95214000Y-42227500D03*
X95214000Y-43497500D03*
X95214000Y-44767500D03*
X95214000Y-46037500D03*
X100164000Y-46037500D03*
X100164000Y-44767500D03*
X100164000Y-43497500D03*
X100164000Y-42227500D03*
X100164000Y-40957500D03*
X100164000Y-39687500D03*
X100164000Y-38417500D03*
D30*
X96166500Y-48450500D03*
X94261500Y-48450500D03*
X100989500Y-48450500D03*
X99084500Y-48450500D03*
D19*
X92011500Y-48133000D03*
D18*
X92011500Y-37973000D03*
D32*
X224790000Y-113411000D03*
D30*
X203244000Y-97456000D03*
D31*
X200704000Y-97456000D03*
X198164000Y-97456000D03*
D19*
X223964500Y-103124000D03*
D18*
X236664500Y-103124000D03*
D19*
X223964500Y-99314000D03*
D18*
X236664500Y-99314000D03*
D60*
X373834600Y-41950000D03*
X374784600Y-41950000D03*
X375734600Y-41950000D03*
X375734600Y-39330000D03*
X374784600Y-39330000D03*
X373834600Y-39330000D03*
X368922200Y-41950000D03*
X369872200Y-41950000D03*
X370822200Y-41950000D03*
X370822200Y-39330000D03*
X369872200Y-39330000D03*
X368922200Y-39330000D03*
X359097400Y-41950000D03*
X360047400Y-41950000D03*
X360997400Y-41950000D03*
X360997400Y-39330000D03*
X360047400Y-39330000D03*
X359097400Y-39330000D03*
X364009800Y-41950000D03*
X364959800Y-41950000D03*
X365909800Y-41950000D03*
X365909800Y-39330000D03*
X364959800Y-39330000D03*
X364009800Y-39330000D03*
G36*
X52895262Y-109121985D02*
G01*
X53257526Y-109194043D01*
X53282760Y-109204495D01*
X53584030Y-109405797D01*
X53603343Y-109425110D01*
X53804645Y-109726380D01*
X53815097Y-109751614D01*
X53887155Y-110113878D01*
X53888500Y-110127534D01*
X53888500Y-119913746D01*
X53887155Y-119927402D01*
X53815097Y-120289666D01*
X53804645Y-120314900D01*
X53603343Y-120616170D01*
X53584030Y-120635483D01*
X53282760Y-120836785D01*
X53257526Y-120847237D01*
X52895262Y-120919295D01*
X52881606Y-120920640D01*
X45012394Y-120920640D01*
X44998738Y-120919295D01*
X44636474Y-120847237D01*
X44611240Y-120836785D01*
X44309970Y-120635483D01*
X44290657Y-120616170D01*
X44089355Y-120314900D01*
X44078903Y-120289666D01*
X44006845Y-119927402D01*
X44005500Y-119913746D01*
X44005500Y-110127534D01*
X44006845Y-110113878D01*
X44078903Y-109751614D01*
X44089355Y-109726380D01*
X44290657Y-109425110D01*
X44309970Y-109405797D01*
X44611240Y-109204495D01*
X44636474Y-109194043D01*
X44998738Y-109121985D01*
X45012394Y-109120640D01*
X52881606Y-109120640D01*
X52895262Y-109121985D01*
G37*
G36*
X54083226Y-232321595D02*
G01*
X54445490Y-232393653D01*
X54470724Y-232404105D01*
X54771994Y-232605407D01*
X54791307Y-232624720D01*
X54992609Y-232925990D01*
X55003061Y-232951224D01*
X55075119Y-233313488D01*
X55076464Y-233327144D01*
X55076464Y-243113356D01*
X55075119Y-243127012D01*
X55003061Y-243489276D01*
X54992609Y-243514510D01*
X54791307Y-243815780D01*
X54771994Y-243835093D01*
X54470724Y-244036395D01*
X54445490Y-244046847D01*
X54083226Y-244118905D01*
X54069570Y-244120250D01*
X44886160Y-244120250D01*
X44872508Y-244118906D01*
X44510367Y-244046898D01*
X44485142Y-244036453D01*
X44183940Y-243835290D01*
X44164628Y-243815990D01*
X43963290Y-243514900D01*
X43952831Y-243489680D01*
X43880616Y-243127581D01*
X43879264Y-243113930D01*
X43873665Y-233327720D01*
X43875003Y-233314058D01*
X43946907Y-232951626D01*
X43957352Y-232926379D01*
X44158617Y-232624931D01*
X44177931Y-232605606D01*
X44479266Y-232404166D01*
X44504508Y-232393706D01*
X44866897Y-232321596D01*
X44880558Y-232320250D01*
X54069570Y-232320250D01*
X54083226Y-232321595D01*
G37*
G36*
X39945232Y-266223345D02*
G01*
X40307496Y-266295403D01*
X40332730Y-266305855D01*
X40634000Y-266507157D01*
X40653313Y-266526470D01*
X40854615Y-266827740D01*
X40865067Y-266852974D01*
X40937125Y-267215238D01*
X40938470Y-267228894D01*
X40938470Y-276615106D01*
X40937125Y-276628762D01*
X40865067Y-276991026D01*
X40854615Y-277016260D01*
X40653313Y-277317530D01*
X40634000Y-277336843D01*
X40332730Y-277538145D01*
X40307496Y-277548597D01*
X39945232Y-277620655D01*
X39931576Y-277622000D01*
X30545364Y-277622000D01*
X30531708Y-277620655D01*
X30169444Y-277548597D01*
X30144210Y-277538145D01*
X29842940Y-277336843D01*
X29823627Y-277317530D01*
X29622325Y-277016260D01*
X29611873Y-276991026D01*
X29539815Y-276628762D01*
X29538470Y-276615106D01*
X29538470Y-267228894D01*
X29539815Y-267215238D01*
X29611873Y-266852974D01*
X29622325Y-266827740D01*
X29823627Y-266526470D01*
X29842940Y-266507157D01*
X30144210Y-266305855D01*
X30169444Y-266295403D01*
X30531708Y-266223345D01*
X30545364Y-266222000D01*
X39931576Y-266222000D01*
X39945232Y-266223345D01*
G37*
G36*
X211576262Y-266128345D02*
G01*
X211938526Y-266200403D01*
X211963760Y-266210855D01*
X212265030Y-266412157D01*
X212284343Y-266431470D01*
X212485645Y-266732740D01*
X212496097Y-266757974D01*
X212568155Y-267120238D01*
X212569500Y-267133894D01*
X212569500Y-276520106D01*
X212568155Y-276533762D01*
X212496097Y-276896026D01*
X212485645Y-276921260D01*
X212284343Y-277222530D01*
X212265030Y-277241843D01*
X211963760Y-277443145D01*
X211938526Y-277453597D01*
X211576262Y-277525655D01*
X211562606Y-277527000D01*
X202076394Y-277527000D01*
X202062738Y-277525655D01*
X201700474Y-277453597D01*
X201675240Y-277443145D01*
X201373970Y-277241843D01*
X201354657Y-277222530D01*
X201153355Y-276921260D01*
X201142903Y-276896026D01*
X201070845Y-276533762D01*
X201069500Y-276520106D01*
X201069500Y-267133894D01*
X201070845Y-267120238D01*
X201142903Y-266757974D01*
X201153355Y-266732740D01*
X201354657Y-266431470D01*
X201373970Y-266412157D01*
X201675240Y-266210855D01*
X201700474Y-266200403D01*
X202062738Y-266128345D01*
X202076394Y-266127000D01*
X211562606Y-266127000D01*
X211576262Y-266128345D01*
G37*
G36*
X372274841Y-43625845D02*
G01*
X372637105Y-43697903D01*
X372662339Y-43708355D01*
X372963609Y-43909657D01*
X372982922Y-43928970D01*
X373184224Y-44230240D01*
X373194676Y-44255474D01*
X373266734Y-44617738D01*
X373268079Y-44631394D01*
X373268079Y-54617606D01*
X373266734Y-54631262D01*
X373194676Y-54993526D01*
X373184224Y-55018760D01*
X372982922Y-55320030D01*
X372963609Y-55339343D01*
X372662339Y-55540645D01*
X372637105Y-55551097D01*
X372274841Y-55623155D01*
X372261185Y-55624500D01*
X362274973Y-55624500D01*
X362261317Y-55623155D01*
X361899053Y-55551097D01*
X361873819Y-55540645D01*
X361572549Y-55339343D01*
X361553236Y-55320030D01*
X361351934Y-55018760D01*
X361341482Y-54993526D01*
X361269424Y-54631262D01*
X361268079Y-54617606D01*
X361268079Y-44631394D01*
X361269424Y-44617738D01*
X361341482Y-44255474D01*
X361351934Y-44230240D01*
X361553236Y-43928970D01*
X361572549Y-43909657D01*
X361873819Y-43708355D01*
X361899053Y-43697903D01*
X362261317Y-43625845D01*
X362274973Y-43624500D01*
X372261185Y-43624500D01*
X372274841Y-43625845D01*
G37*
G36*
X372278062Y-138201345D02*
G01*
X372640326Y-138273403D01*
X372665560Y-138283855D01*
X372966830Y-138485157D01*
X372986143Y-138504470D01*
X373187445Y-138805740D01*
X373197897Y-138830974D01*
X373269955Y-139193238D01*
X373271300Y-139206894D01*
X373271300Y-149193106D01*
X373269955Y-149206762D01*
X373197897Y-149569026D01*
X373187445Y-149594260D01*
X372986143Y-149895530D01*
X372966830Y-149914843D01*
X372665560Y-150116145D01*
X372640326Y-150126597D01*
X372278062Y-150198655D01*
X372264406Y-150200000D01*
X362278194Y-150200000D01*
X362264538Y-150198655D01*
X361902274Y-150126597D01*
X361877040Y-150116145D01*
X361575770Y-149914843D01*
X361556457Y-149895530D01*
X361355155Y-149594260D01*
X361344703Y-149569026D01*
X361272645Y-149206762D01*
X361271300Y-149193106D01*
X361271300Y-139206894D01*
X361272645Y-139193238D01*
X361344703Y-138830974D01*
X361355155Y-138805740D01*
X361556457Y-138504470D01*
X361575770Y-138485157D01*
X361877040Y-138283855D01*
X361902274Y-138273403D01*
X362264538Y-138201345D01*
X362278194Y-138200000D01*
X372264406Y-138200000D01*
X372278062Y-138201345D01*
G37*
M02*
