M48
; DRILL file {KiCad 9.0.5} date 2025-11-25T20:56:38+0000
; FORMAT={-:-/ absolute / metric / decimal}
; #@! TF.CreationDate,2025-11-25T20:56:38+00:00
; #@! TF.GenerationSoftware,Kicad,Pcbnew,9.0.5
; #@! TF.FileFunction,MixedPlating,1,2
FMAT,2
METRIC
; #@! TA.AperFunction,Plated,PTH,ComponentDrill
T1C0.500
; #@! TA.AperFunction,Plated,PTH,ViaDrill
T2C0.600
; #@! TA.AperFunction,Plated,PTH,ComponentDrill
T3C0.700
; #@! TA.AperFunction,Plated,PTH,ComponentDrill
T4C0.800
; #@! TA.AperFunction,Plated,PTH,ComponentDrill
T5C0.899
; #@! TA.AperFunction,Plated,PTH,ComponentDrill
T6C0.900
; #@! TA.AperFunction,Plated,PTH,ViaDrill
T7C1.000
; #@! TA.AperFunction,Plated,PTH,ComponentDrill
T8C1.000
; #@! TA.AperFunction,Plated,PTH,ComponentDrill
T9C1.016
; #@! TA.AperFunction,Plated,PTH,ComponentDrill
T10C1.170
; #@! TA.AperFunction,Plated,PTH,ComponentDrill
T11C1.200
; #@! TA.AperFunction,Plated,PTH,ComponentDrill
T12C1.300
; #@! TA.AperFunction,Plated,PTH,ComponentDrill
T13C1.400
; #@! TA.AperFunction,Plated,PTH,ComponentDrill
T14C1.500
; #@! TA.AperFunction,Plated,PTH,ComponentDrill
T15C1.600
; #@! TA.AperFunction,Plated,PTH,ComponentDrill
T16C3.200
; #@! TA.AperFunction,Plated,PTH,ComponentDrill
T17C4.000
%
G90
G05
T1
X229.933Y-204.47
X230.065Y-212.09
X232.474Y-212.09
T2
X30.48Y-45.72
X30.48Y-64.897
X30.48Y-245.237
X30.48Y-261.747
X39.37Y-136.017
X39.37Y-141.097
X39.37Y-143.637
X39.37Y-146.177
X39.37Y-148.717
X39.37Y-151.257
X39.37Y-156.337
X39.37Y-158.877
X39.37Y-161.417
X39.37Y-163.957
X39.37Y-166.497
X39.37Y-171.577
X39.37Y-174.117
X39.37Y-176.657
X39.37Y-179.197
X39.37Y-181.737
X39.37Y-186.817
X39.37Y-189.357
X39.37Y-191.897
X39.37Y-194.437
X39.37Y-196.977
X39.37Y-202.057
X39.37Y-204.597
X39.37Y-207.137
X39.37Y-209.677
X39.37Y-212.217
X39.37Y-217.297
X39.37Y-219.837
X39.37Y-222.377
X39.37Y-224.917
X39.37Y-227.457
X40.386Y-39.243
X41.148Y-96.774
X41.275Y-135.636
X45.085Y-26.035
X45.72Y-38.735
X47.625Y-48.133
X48.329Y-88.646
X51.435Y-230.505
X52.07Y-96.774
X53.34Y-60.706
X53.467Y-26.035
X53.975Y-126.111
X53.975Y-144.78
X54.737Y-230.505
X55.245Y-38.735
X56.515Y-272.0
X56.642Y-96.774
X57.912Y-144.78
X57.912Y-191.897
X57.912Y-199.517
X57.912Y-234.442
X59.182Y-53.975
X59.817Y-89.662
X62.23Y-94.234
X62.357Y-111.379
X63.627Y-42.545
X63.627Y-117.729
X63.627Y-131.826
X63.627Y-135.636
X63.964Y-123.634
X64.897Y-129.921
X64.897Y-134.366
X64.941Y-104.267
X65.443Y-74.447
X65.532Y-110.744
X66.167Y-133.096
X66.421Y-119.38
X67.437Y-55.245
X67.437Y-121.666
X67.437Y-129.286
X67.437Y-131.826
X67.437Y-258.572
X67.832Y-196.977
X68.58Y-191.897
X68.707Y-143.256
X68.707Y-199.517
X68.707Y-247.142
X69.215Y-111.633
X69.215Y-131.191
X70.612Y-98.552
X71.247Y-236.22
X71.247Y-272.0
X72.072Y-99.187
X72.517Y-233.68
X73.152Y-240.157
X75.027Y-254.183
X75.057Y-108.839
X75.692Y-38.735
X75.692Y-148.336
X75.692Y-234.95
X76.835Y-186.817
X76.835Y-203.549
X77.597Y-96.774
X77.597Y-233.553
X78.232Y-148.336
X78.232Y-181.102
X78.232Y-230.505
X79.502Y-38.735
X79.502Y-176.657
X79.502Y-178.308
X79.502Y-233.553
X79.692Y-200.215
X80.137Y-118.491
X81.407Y-125.476
X82.042Y-153.416
X82.233Y-200.215
X82.677Y-108.839
X82.677Y-202.057
X83.356Y-53.845
X84.074Y-136.144
X84.582Y-41.275
X84.582Y-56.515
X84.582Y-149.733
X84.709Y-106.934
X84.709Y-117.221
X84.709Y-217.297
X85.217Y-223.647
X85.217Y-226.187
X85.217Y-228.727
X85.852Y-221.107
X85.947Y-272.0
X85.979Y-136.906
X86.106Y-200.406
X86.36Y-53.213
X86.487Y-231.14
X86.677Y-64.643
X86.677Y-60.449
X86.995Y-201.549
X87.376Y-65.722
X87.757Y-55.88
X87.884Y-214.757
X87.884Y-217.297
X87.884Y-219.837
X87.884Y-221.742
X87.884Y-223.647
X88.011Y-202.692
X88.011Y-205.613
X88.519Y-112.776
X89.027Y-135.763
X89.154Y-210.852
X89.154Y-240.157
X90.424Y-112.014
X90.424Y-134.366
X90.932Y-174.498
X91.059Y-57.467
X91.821Y-135.763
X92.837Y-174.625
X92.964Y-133.731
X93.599Y-76.372
X93.599Y-117.094
X93.726Y-26.035
X93.853Y-168.91
X93.98Y-175.641
X93.98Y-178.181
X94.234Y-112.522
X94.234Y-216.027
X94.869Y-133.096
X95.377Y-179.959
X95.504Y-114.427
X95.504Y-120.904
X95.504Y-123.631
X95.504Y-135.001
X95.504Y-240.157
X95.685Y-152.273
X95.685Y-155.638
X96.266Y-125.476
X96.691Y-82.042
X96.691Y-83.944
X96.71Y-64.548
X96.774Y-131.826
X97.308Y-44.196
X97.409Y-111.887
X97.409Y-115.189
X97.625Y-47.294
X98.108Y-69.342
X98.514Y-135.001
X98.514Y-161.671
X98.679Y-96.774
X98.679Y-125.476
X98.679Y-272.0
X98.806Y-174.371
X99.314Y-112.522
X99.409Y-158.949
X99.822Y-63.246
X99.822Y-173.482
X99.949Y-133.731
X99.949Y-199.517
X99.949Y-207.01
X100.33Y-69.088
X100.33Y-74.93
X100.711Y-176.657
X101.219Y-113.157
X101.407Y-152.273
X101.407Y-155.575
X101.727Y-171.45
X101.727Y-184.277
X101.854Y-82.677
X101.854Y-231.14
X102.489Y-77.025
X102.679Y-181.737
X103.06Y-48.45
X103.06Y-52.324
X103.124Y-113.792
X103.695Y-179.197
X104.394Y-227.838
X104.648Y-175.323
X104.712Y-152.273
X105.029Y-107.569
X105.029Y-120.904
X105.029Y-123.631
X105.867Y-69.151
X107.569Y-78.899
X107.569Y-96.774
X107.632Y-66.146
X108.585Y-147.066
X108.585Y-148.971
X108.648Y-70.421
X109.347Y-74.075
X109.474Y-241.427
X110.045Y-70.421
X110.49Y-147.066
X110.998Y-205.296
X111.379Y-92.964
X111.411Y-272.0
X111.76Y-172.085
X111.76Y-173.99
X111.76Y-175.895
X112.649Y-150.876
X112.649Y-153.543
X113.919Y-120.904
X113.919Y-136.906
X113.919Y-152.209
X113.919Y-206.595
X113.919Y-226.695
X114.046Y-158.877
X114.046Y-161.798
X114.046Y-168.275
X114.046Y-172.72
X115.189Y-150.876
X115.189Y-153.543
X116.459Y-155.321
X116.459Y-180.34
X116.586Y-176.403
X117.094Y-178.308
X117.221Y-121.539
X117.221Y-233.045
X117.221Y-235.077
X117.729Y-236.855
X118.364Y-175.768
X119.126Y-235.077
X119.634Y-26.035
X120.396Y-233.68
X120.968Y-241.427
X121.031Y-75.692
X121.031Y-92.964
X121.031Y-125.476
X121.031Y-131.826
X121.666Y-176.403
X121.92Y-230.124
X122.301Y-124.079
X122.301Y-140.208
X122.301Y-142.113
X122.301Y-225.425
X122.301Y-234.315
X124.142Y-272.0
X124.206Y-80.137
X124.841Y-112.014
X124.841Y-142.621
X124.841Y-225.425
X124.841Y-229.87
X124.841Y-234.95
X125.476Y-63.5
X125.476Y-78.232
X125.984Y-92.202
X126.111Y-120.142
X126.111Y-134.81
X127.254Y-90.932
X127.381Y-227.965
X127.4Y-61.697
X128.016Y-112.014
X128.016Y-138.684
X128.016Y-174.117
X128.016Y-235.585
X128.524Y-92.71
X128.651Y-229.87
X129.286Y-90.932
X129.305Y-61.697
X129.921Y-206.595
X129.921Y-221.488
X129.921Y-235.585
X130.556Y-89.662
X130.556Y-202.311
X131.064Y-106.807
X131.191Y-227.965
X131.191Y-251.587
X131.826Y-102.997
X131.826Y-177.673
X132.461Y-45.72
X133.096Y-104.902
X133.096Y-201.041
X133.223Y-227.965
X134.302Y-49.022
X134.366Y-63.967
X135.636Y-152.273
X135.636Y-199.771
X136.271Y-75.692
X136.271Y-166.116
X136.271Y-206.595
X136.271Y-221.488
X136.906Y-89.662
X136.906Y-168.148
X136.906Y-173.863
X136.906Y-179.07
X136.906Y-184.658
X136.938Y-272.0
X137.541Y-240.792
X138.176Y-198.501
X138.811Y-87.249
X138.811Y-89.027
X138.811Y-221.488
X140.208Y-194.818
X140.716Y-87.249
X140.716Y-168.148
X140.716Y-173.863
X140.716Y-179.07
X140.716Y-184.658
X140.716Y-197.231
X140.716Y-221.488
X142.621Y-221.488
X143.256Y-135.001
X143.256Y-152.273
X143.891Y-59.753
X144.526Y-86.487
X144.526Y-221.488
X146.494Y-240.792
X146.558Y-86.487
X147.193Y-75.692
X147.701Y-112.519
X147.701Y-182.245
X147.701Y-206.595
X147.701Y-224.79
X148.082Y-49.022
X148.336Y-103.632
X148.336Y-199.771
X148.336Y-201.422
X148.971Y-184.658
X148.971Y-225.933
X149.606Y-168.148
X149.669Y-272.0
X150.241Y-103.124
X150.876Y-101.219
X150.876Y-112.519
X150.876Y-117.094
X150.876Y-199.39
X151.003Y-225.933
X152.273Y-99.314
X152.273Y-196.85
X152.825Y-112.519
X153.416Y-117.094
X153.416Y-194.183
X153.543Y-101.219
X153.543Y-225.933
X154.051Y-161.671
X154.178Y-192.278
X154.813Y-99.314
X155.448Y-117.094
X155.448Y-225.933
X155.956Y-151.003
X156.083Y-62.992
X156.083Y-180.848
X156.083Y-183.515
X156.083Y-198.755
X157.226Y-71.882
X157.226Y-225.933
X157.353Y-98.552
X157.988Y-113.792
X157.988Y-117.094
X158.623Y-62.357
X159.258Y-97.917
X159.766Y-179.197
X159.868Y-113.792
X160.464Y-240.792
X160.528Y-161.036
X160.719Y-177.99
X161.163Y-74.422
X161.163Y-97.409
X161.734Y-57.087
X161.798Y-163.322
X162.35Y-117.726
X162.381Y-76.962
X162.381Y-85.852
X162.401Y-272.0
X162.402Y-64.107
X162.433Y-113.792
X162.433Y-177.292
X162.814Y-175.323
X162.941Y-71.882
X163.068Y-50.927
X163.068Y-104.394
X163.703Y-73.66
X163.703Y-166.497
X164.338Y-163.64
X164.846Y-175.006
X164.973Y-104.394
X165.608Y-173.228
X166.116Y-117.726
X166.243Y-57.087
X166.243Y-167.386
X166.878Y-95.377
X166.878Y-104.902
X167.513Y-50.8
X167.513Y-85.217
X167.513Y-173.228
X167.64Y-73.66
X168.021Y-171.831
X168.148Y-106.299
X168.148Y-117.726
X168.783Y-168.402
X169.418Y-84.582
X169.418Y-94.742
X170.053Y-172.212
X170.688Y-85.852
X171.323Y-50.8
X171.323Y-159.766
X171.323Y-162.433
X171.323Y-164.973
X171.323Y-187.198
X171.367Y-71.247
X171.958Y-94.742
X171.958Y-167.386
X171.958Y-240.792
X172.593Y-84.582
X172.593Y-135.001
X173.228Y-160.401
X173.228Y-162.941
X173.228Y-165.608
X173.863Y-85.852
X173.863Y-96.647
X174.498Y-48.895
X174.498Y-193.04
X176.403Y-96.647
X177.038Y-85.217
X177.038Y-272.0
X177.109Y-239.395
X178.308Y-98.679
X178.943Y-26.035
X178.943Y-175.768
X179.622Y-208.785
X180.848Y-95.377
X180.848Y-98.552
X181.483Y-65.542
X181.483Y-73.533
X181.527Y-208.785
X182.753Y-89.027
X182.753Y-98.552
X182.797Y-186.56
X182.88Y-95.377
X184.023Y-57.785
X184.15Y-241.427
X184.727Y-161.173
X185.337Y-206.245
X185.42Y-96.012
X186.055Y-268.097
X186.632Y-161.173
X187.242Y-80.772
X187.242Y-97.456
X187.242Y-206.245
X187.388Y-254.093
X187.388Y-261.72
X189.21Y-272.0
X189.807Y-161.173
X190.315Y-175.27
X190.544Y-203.705
X191.712Y-104.404
X191.712Y-161.173
X191.77Y-65.405
X192.271Y-245.297
X192.271Y-247.65
X192.278Y-241.3
X192.322Y-203.705
X192.405Y-123.571
X192.405Y-135.001
X192.957Y-186.56
X193.617Y-104.404
X193.675Y-45.72
X194.887Y-162.443
X194.945Y-74.295
X194.945Y-226.695
X194.945Y-236.22
X195.522Y-99.187
X195.522Y-103.769
X195.58Y-43.18
X196.215Y-72.898
X196.532Y-45.72
X196.792Y-162.443
X196.894Y-201.165
X198.062Y-104.404
X198.062Y-106.309
X198.634Y-201.165
X198.799Y-117.726
X199.39Y-45.72
X199.39Y-255.27
X200.069Y-250.822
X200.152Y-226.695
X200.577Y-104.391
X200.577Y-162.303
X200.66Y-74.295
X200.66Y-260.477
X200.66Y-262.318
X200.704Y-101.724
X200.704Y-106.169
X200.704Y-175.13
X201.295Y-247.65
X201.974Y-117.726
X202.565Y-245.364
X203.244Y-249.555
X203.244Y-252.092
X203.244Y-254.0
X203.244Y-258.572
X203.835Y-193.04
X203.835Y-241.935
X203.835Y-260.477
X203.962Y-247.65
X204.47Y-239.395
X205.047Y-171.091
X207.01Y-57.15
X207.01Y-59.69
X207.01Y-135.001
X207.01Y-151.003
X207.298Y-99.314
X207.645Y-197.993
X207.772Y-184.15
X208.28Y-245.745
X208.915Y-168.148
X208.915Y-175.768
X209.549Y-256.667
X209.594Y-203.705
X209.746Y-135.001
X211.151Y-102.489
X211.455Y-151.003
X211.455Y-187.833
X211.518Y-226.695
X211.582Y-125.476
X211.626Y-203.705
X212.09Y-59.69
X212.725Y-91.567
X212.725Y-133.731
X212.852Y-184.15
X214.122Y-125.476
X214.312Y-211.201
X214.63Y-266.192
X214.757Y-136.144
X214.757Y-183.261
X214.884Y-233.804
X214.884Y-236.344
X215.265Y-115.316
X215.392Y-91.567
X215.392Y-159.893
X216.096Y-133.731
X216.535Y-151.003
X216.662Y-247.713
X216.662Y-252.857
X217.17Y-91.567
X217.297Y-57.785
X217.805Y-115.316
X217.874Y-170.188
X217.932Y-68.072
X217.932Y-229.362
X218.484Y-180.718
X218.567Y-135.636
X218.694Y-120.904
X218.948Y-209.931
X219.119Y-187.703
X219.837Y-58.547
X219.837Y-102.489
X220.389Y-200.53
X220.414Y-180.083
X221.176Y-126.111
X221.659Y-164.843
X222.294Y-200.53
X222.44Y-59.69
X222.929Y-180.718
X223.012Y-256.667
X223.012Y-266.192
X223.012Y-272.669
X223.647Y-26.035
X223.716Y-129.794
X224.282Y-46.99
X224.282Y-200.53
X224.834Y-154.686
X224.917Y-157.353
X224.961Y-179.448
X225.425Y-125.476
X225.469Y-164.843
X225.552Y-151.003
X226.104Y-176.273
X226.759Y-196.706
X226.822Y-159.131
X227.711Y-99.314
X228.092Y-126.746
X228.644Y-181.353
X229.304Y-165.449
X229.362Y-130.429
X229.406Y-187.703
X229.489Y-117.094
X229.914Y-179.448
X229.997Y-155.321
X230.549Y-195.958
X230.632Y-66.675
X231.2Y-233.68
X231.2Y-240.154
X231.336Y-112.014
X231.336Y-154.178
X231.902Y-78.74
X232.537Y-86.487
X232.791Y-103.124
X233.089Y-180.718
X233.114Y-195.453
X233.172Y-149.86
X233.808Y-252.855
X234.384Y-165.449
X234.486Y-178.813
X235.077Y-120.904
X235.712Y-249.047
X236.347Y-156.591
X236.375Y-124.862
X236.982Y-177.038
X237.49Y-111.887
X237.617Y-159.258
X237.617Y-182.88
X237.617Y-196.215
X238.887Y-58.544
X238.887Y-111.506
X239.522Y-48.26
X239.522Y-178.943
X239.522Y-213.995
X240.709Y-168.78
X240.792Y-62.992
X241.427Y-151.003
X242.062Y-272.669
X242.131Y-68.707
X242.697Y-64.135
X243.332Y-185.42
X243.967Y-154.686
X243.967Y-214.503
X243.967Y-266.192
X244.011Y-106.169
X244.602Y-170.561
X244.671Y-69.215
X244.729Y-212.725
X245.237Y-155.956
X245.999Y-180.086
X246.507Y-181.991
X246.507Y-183.896
X246.507Y-185.801
X246.507Y-187.833
X247.142Y-102.489
X247.84Y-113.221
X247.846Y-129.921
X248.539Y-80.772
X249.047Y-149.86
X249.111Y-114.49
X249.174Y-63.373
X249.682Y-108.839
X249.682Y-266.192
X249.809Y-164.084
X250.38Y-112.522
X251.587Y-79.375
X251.65Y-126.619
X251.714Y-151.003
X251.714Y-154.051
X252.857Y-162.941
X252.926Y-129.921
X252.984Y-68.58
X253.028Y-65.405
X253.536Y-97.914
X254.254Y-114.554
X256.794Y-164.338
X257.302Y-176.784
X257.302Y-182.907
X257.429Y-82.677
X257.981Y-66.672
X258.064Y-79.375
X259.207Y-120.904
X259.969Y-163.576
X260.604Y-48.768
X261.874Y-99.314
X263.144Y-80.01
X263.144Y-107.569
X263.144Y-161.671
X264.458Y-113.154
X265.684Y-108.839
X265.684Y-126.746
X265.728Y-55.88
X265.728Y-64.135
X266.319Y-151.003
X266.319Y-176.784
X266.319Y-182.907
X267.589Y-136.906
X268.166Y-127.381
X268.224Y-50.8
X268.859Y-94.107
X269.494Y-155.829
X269.494Y-158.369
X269.71Y-135.204
X271.399Y-78.867
X271.399Y-155.829
X271.399Y-158.369
X272.034Y-102.489
X272.034Y-160.401
X273.939Y-160.401
X275.209Y-64.77
X275.209Y-82.677
X275.209Y-159.131
X276.479Y-160.401
X277.749Y-110.617
X277.749Y-112.649
X277.749Y-159.258
X277.876Y-71.247
X277.876Y-121.539
X278.384Y-99.314
X278.384Y-161.036
X279.4Y-172.466
X279.781Y-121.539
X280.733Y-68.072
X280.924Y-122.809
X282.771Y-65.786
X282.771Y-79.502
X282.956Y-123.444
X284.861Y-124.206
X284.861Y-147.066
X285.369Y-58.547
X285.369Y-68.072
X285.369Y-101.219
X286.131Y-49.53
X287.401Y-108.204
X287.401Y-134.366
X287.851Y-70.485
X287.909Y-78.232
X288.036Y-49.53
X288.036Y-176.784
X288.036Y-182.907
X288.515Y-82.677
X289.306Y-59.69
X289.941Y-61.722
X289.941Y-64.897
X290.656Y-108.204
X290.656Y-112.014
X290.656Y-119.634
X291.211Y-49.53
X292.1Y-103.124
X293.497Y-82.169
X293.751Y-68.072
X297.434Y-103.124
X297.434Y-108.204
X298.831Y-155.321
X299.466Y-74.041
X300.101Y-154.037
X302.514Y-97.409
X302.514Y-102.489
X304.59Y-97.409
X305.816Y-115.824
X305.86Y-87.122
X307.086Y-92.964
X310.261Y-114.681
X312.928Y-85.217
X314.833Y-119.634
X323.723Y-26.035
X325.755Y-56.642
X326.898Y-122.301
X328.803Y-131.826
X329.09Y-97.409
X329.09Y-105.029
X329.438Y-61.722
X330.073Y-85.217
X330.835Y-119.634
X331.343Y-124.079
X333.375Y-124.079
X337.82Y-130.556
X341.63Y-103.124
X342.265Y-101.219
X347.853Y-83.618
X348.361Y-96.774
X348.361Y-117.538
X348.361Y-138.43
X348.361Y-151.638
X348.361Y-182.245
X348.615Y-51.435
X349.123Y-26.035
X349.123Y-91.694
X353.06Y-66.167
X353.06Y-83.618
X356.87Y-67.945
X359.41Y-67.945
X362.504Y-42.164
X370.84Y-89.662
X372.618Y-182.245
X373.38Y-88.392
X374.714Y-89.662
X377.317Y-88.392
X377.317Y-92.202
X379.095Y-93.599
X384.302Y-26.035
X393.693Y-43.18
X393.693Y-66.167
X393.693Y-96.774
X393.693Y-138.43
X393.693Y-151.638
X393.693Y-182.245
T3
X121.266Y-105.034
X126.266Y-105.034
X237.617Y-205.677
X237.617Y-210.677
T4
X32.004Y-41.275
X34.29Y-72.517
X34.29Y-82.677
X34.29Y-88.392
X34.29Y-98.552
X38.1Y-62.928
X38.169Y-72.527
X38.169Y-80.147
X38.169Y-85.989
X38.169Y-101.229
X40.709Y-72.527
X40.709Y-80.147
X40.709Y-85.989
X40.709Y-101.229
X43.249Y-72.527
X43.249Y-80.147
X43.249Y-85.989
X43.249Y-101.229
X44.704Y-41.275
X45.673Y-128.397
X45.673Y-132.334
X45.673Y-136.271
X45.72Y-156.337
X45.72Y-158.877
X45.72Y-161.417
X45.72Y-163.957
X45.72Y-166.497
X45.72Y-169.037
X45.72Y-171.577
X45.72Y-174.117
X45.72Y-176.657
X45.72Y-179.197
X45.72Y-183.007
X45.72Y-193.167
X45.72Y-199.517
X45.72Y-202.057
X45.72Y-204.597
X45.72Y-207.137
X45.72Y-209.677
X45.72Y-212.217
X45.72Y-214.757
X45.72Y-217.297
X45.72Y-219.837
X45.72Y-222.377
X45.789Y-72.527
X45.789Y-80.147
X45.789Y-85.989
X45.789Y-101.229
X48.213Y-128.397
X48.213Y-132.334
X48.213Y-136.271
X48.329Y-72.527
X48.329Y-80.147
X48.329Y-85.989
X48.329Y-101.229
X49.53Y-41.275
X49.53Y-43.815
X49.53Y-46.355
X49.53Y-53.975
X49.663Y-148.717
X49.663Y-151.257
X49.663Y-153.797
X49.663Y-156.337
X49.663Y-158.877
X49.663Y-161.417
X49.663Y-163.957
X49.663Y-166.497
X49.663Y-169.037
X49.663Y-171.577
X49.663Y-174.117
X49.663Y-176.657
X49.663Y-179.197
X49.663Y-181.737
X49.663Y-184.277
X49.663Y-186.817
X49.663Y-189.357
X49.663Y-191.897
X49.663Y-194.437
X49.663Y-196.977
X49.663Y-199.517
X49.663Y-202.057
X49.663Y-204.597
X49.663Y-207.137
X49.663Y-209.677
X49.663Y-212.217
X49.663Y-214.757
X49.663Y-217.297
X49.663Y-219.837
X49.663Y-222.377
X49.663Y-224.917
X49.663Y-227.457
X50.753Y-128.397
X50.753Y-132.334
X50.753Y-136.271
X50.869Y-72.527
X50.869Y-80.147
X50.869Y-85.989
X50.869Y-101.229
X53.34Y-41.275
X53.34Y-43.815
X53.34Y-46.355
X53.34Y-53.975
X53.34Y-62.928
X53.409Y-72.527
X53.409Y-80.147
X53.409Y-85.989
X53.409Y-101.229
X55.949Y-72.527
X55.949Y-80.147
X55.949Y-85.989
X55.949Y-101.229
X57.15Y-41.275
X57.15Y-43.815
X57.15Y-46.355
X57.15Y-53.975
X58.464Y-57.274
X58.464Y-60.449
X58.489Y-72.527
X58.489Y-80.147
X58.489Y-85.989
X58.489Y-101.229
X59.182Y-242.697
X59.182Y-245.237
X59.182Y-247.777
X59.182Y-250.317
X59.182Y-252.857
X59.182Y-255.397
X59.182Y-257.937
X59.182Y-260.477
X59.182Y-263.017
X59.182Y-265.557
X59.817Y-116.522
X60.96Y-41.275
X60.96Y-43.815
X60.96Y-46.355
X60.96Y-53.975
X61.004Y-57.274
X61.004Y-60.449
X61.029Y-72.527
X61.029Y-80.147
X61.029Y-85.989
X61.029Y-101.229
X61.087Y-106.045
X61.087Y-113.665
X61.087Y-119.825
X61.087Y-123.634
X61.087Y-127.444
X61.087Y-131.255
X61.087Y-135.001
X61.087Y-232.49
X61.087Y-237.49
X62.357Y-116.522
X63.544Y-57.274
X63.544Y-60.449
X63.569Y-85.989
X63.569Y-101.229
X63.627Y-106.045
X63.627Y-113.665
X64.897Y-71.628
X64.897Y-81.788
X64.897Y-116.522
X66.084Y-57.274
X66.084Y-60.449
X66.109Y-85.989
X66.109Y-101.229
X66.167Y-106.045
X66.167Y-113.665
X66.167Y-250.317
X66.167Y-263.017
X67.437Y-116.522
X68.624Y-57.274
X68.624Y-60.449
X68.649Y-72.527
X68.649Y-80.147
X68.649Y-85.989
X68.649Y-101.229
X68.707Y-106.045
X68.707Y-113.665
X68.707Y-250.317
X68.707Y-263.017
X69.977Y-41.275
X69.977Y-43.815
X69.977Y-46.355
X69.977Y-53.975
X69.977Y-116.522
X71.164Y-57.274
X71.164Y-60.449
X71.189Y-72.527
X71.189Y-80.147
X71.189Y-85.989
X71.189Y-101.229
X71.247Y-106.045
X71.247Y-113.665
X71.247Y-119.825
X71.247Y-123.634
X71.247Y-127.444
X71.247Y-131.255
X71.247Y-135.001
X72.517Y-116.522
X72.523Y-148.717
X72.523Y-151.257
X72.523Y-153.797
X72.523Y-156.337
X72.523Y-158.877
X72.523Y-161.417
X72.523Y-163.957
X72.523Y-166.497
X72.523Y-169.037
X72.523Y-171.577
X72.523Y-174.117
X72.523Y-176.657
X72.523Y-179.197
X72.523Y-181.737
X72.523Y-184.277
X72.523Y-186.817
X72.523Y-189.357
X72.523Y-191.897
X72.523Y-194.437
X72.523Y-196.977
X72.523Y-199.517
X72.523Y-202.057
X72.523Y-204.597
X72.523Y-207.137
X72.523Y-209.677
X72.523Y-212.217
X72.523Y-214.757
X72.523Y-217.297
X72.523Y-219.837
X72.523Y-222.377
X72.523Y-224.917
X72.523Y-227.457
X73.152Y-252.857
X73.152Y-263.017
X73.704Y-57.274
X73.704Y-60.449
X73.729Y-72.527
X73.729Y-80.147
X73.729Y-85.989
X73.729Y-101.229
X73.787Y-41.275
X73.787Y-43.815
X73.787Y-46.355
X73.787Y-53.975
X73.787Y-106.045
X73.787Y-113.665
X73.787Y-119.825
X73.787Y-123.631
X73.787Y-127.444
X73.787Y-131.255
X75.057Y-116.522
X76.244Y-57.274
X76.244Y-60.449
X76.269Y-72.527
X76.269Y-80.147
X76.269Y-85.989
X76.269Y-101.229
X76.327Y-106.045
X76.327Y-113.665
X76.327Y-119.825
X76.327Y-123.631
X76.327Y-127.444
X76.327Y-131.255
X76.327Y-151.257
X76.327Y-153.797
X76.327Y-156.337
X76.327Y-158.877
X76.327Y-161.417
X76.327Y-163.957
X76.327Y-166.497
X76.327Y-169.037
X76.327Y-171.577
X76.327Y-174.117
X76.391Y-245.237
X76.391Y-247.777
X76.391Y-250.317
X76.391Y-252.857
X76.391Y-255.397
X76.391Y-257.937
X76.391Y-260.477
X76.391Y-263.017
X76.391Y-265.557
X76.391Y-268.097
X76.835Y-184.277
X76.835Y-194.437
X76.835Y-196.977
X76.835Y-209.677
X77.597Y-41.275
X77.597Y-43.815
X77.597Y-46.355
X77.597Y-53.975
X77.597Y-116.522
X78.784Y-57.274
X78.784Y-60.449
X78.809Y-72.527
X78.809Y-80.147
X78.809Y-85.989
X78.809Y-101.229
X78.867Y-106.045
X78.867Y-113.665
X78.867Y-119.825
X78.867Y-123.631
X78.867Y-127.444
X78.867Y-131.255
X80.137Y-116.522
X80.137Y-151.257
X80.137Y-153.797
X80.137Y-156.337
X80.137Y-158.877
X80.137Y-161.417
X80.137Y-163.957
X80.137Y-166.497
X80.137Y-169.037
X80.137Y-171.577
X80.137Y-174.117
X80.772Y-207.137
X80.772Y-209.677
X80.772Y-212.217
X80.772Y-214.757
X80.772Y-217.297
X80.772Y-219.837
X80.772Y-222.377
X80.772Y-224.917
X80.772Y-227.457
X80.772Y-229.997
X81.324Y-57.274
X81.324Y-60.449
X81.349Y-72.527
X81.349Y-80.147
X81.349Y-85.989
X81.349Y-101.229
X81.407Y-41.275
X81.407Y-43.815
X81.407Y-46.355
X81.407Y-53.975
X82.677Y-103.759
X82.677Y-113.919
X82.677Y-116.522
X83.889Y-72.527
X83.889Y-80.147
X83.889Y-85.989
X83.889Y-101.229
X84.01Y-245.237
X84.01Y-247.777
X84.01Y-250.317
X84.01Y-252.857
X84.01Y-255.397
X84.01Y-257.937
X84.01Y-260.477
X84.01Y-263.017
X84.01Y-265.557
X84.01Y-268.097
X86.429Y-72.527
X86.429Y-80.147
X86.429Y-85.989
X86.429Y-101.229
X86.487Y-115.189
X86.487Y-119.825
X86.487Y-123.631
X86.487Y-127.444
X86.487Y-131.255
X87.884Y-245.237
X87.884Y-247.777
X87.884Y-250.317
X87.884Y-252.857
X87.884Y-255.397
X87.884Y-257.937
X87.884Y-260.477
X87.884Y-263.017
X87.884Y-265.557
X87.884Y-268.097
X88.456Y-41.275
X88.456Y-43.815
X88.456Y-46.355
X88.456Y-53.975
X88.969Y-72.527
X88.969Y-80.147
X88.969Y-85.989
X88.969Y-101.229
X89.027Y-115.189
X90.424Y-144.526
X91.509Y-72.527
X91.509Y-80.147
X91.509Y-85.989
X91.509Y-101.229
X91.567Y-115.189
X91.694Y-176.657
X91.694Y-179.197
X91.694Y-181.737
X91.694Y-184.277
X91.694Y-186.817
X91.694Y-189.357
X91.694Y-191.897
X91.694Y-194.437
X91.694Y-196.977
X91.694Y-199.517
X91.694Y-202.057
X91.694Y-204.597
X91.694Y-207.137
X91.694Y-209.677
X91.694Y-212.217
X91.694Y-214.757
X91.694Y-217.297
X91.694Y-219.837
X91.694Y-222.377
X91.694Y-224.917
X91.694Y-227.457
X92.011Y-37.973
X92.011Y-48.133
X92.964Y-123.631
X92.964Y-138.871
X94.049Y-85.989
X94.049Y-101.229
X95.504Y-245.237
X95.504Y-247.777
X95.504Y-250.317
X95.504Y-252.857
X95.504Y-255.397
X95.504Y-257.937
X95.504Y-260.477
X95.504Y-263.017
X95.504Y-265.557
X95.504Y-268.097
X96.589Y-85.989
X96.589Y-101.229
X97.409Y-73.152
X97.409Y-75.692
X97.409Y-78.232
X98.679Y-252.857
X98.679Y-263.017
X100.584Y-123.631
X100.584Y-138.871
X100.584Y-144.526
X101.854Y-245.237
X101.854Y-247.777
X101.854Y-250.317
X101.854Y-252.857
X101.854Y-255.397
X101.854Y-257.937
X101.854Y-260.477
X101.854Y-263.017
X101.854Y-265.557
X101.854Y-268.097
X102.552Y-71.272
X105.093Y-74.486
X105.093Y-77.025
X105.093Y-79.566
X105.093Y-82.105
X106.299Y-140.779
X106.299Y-143.32
X106.299Y-145.859
X106.934Y-176.657
X106.934Y-179.197
X106.934Y-181.737
X106.934Y-184.277
X106.934Y-186.817
X106.934Y-189.357
X106.934Y-191.897
X106.934Y-194.437
X106.934Y-196.977
X106.934Y-199.517
X106.934Y-202.057
X106.934Y-204.597
X106.934Y-207.137
X106.934Y-209.677
X106.934Y-212.217
X106.934Y-214.757
X106.934Y-217.297
X106.934Y-219.837
X106.934Y-222.377
X106.934Y-224.917
X106.934Y-227.457
X109.474Y-59.69
X109.474Y-62.272
X109.474Y-64.855
X109.474Y-67.437
X109.474Y-245.237
X109.474Y-247.777
X109.474Y-250.317
X109.474Y-252.857
X109.474Y-255.397
X109.474Y-257.937
X109.474Y-260.477
X109.474Y-263.017
X109.474Y-265.557
X109.474Y-268.097
X110.49Y-148.971
X110.49Y-153.971
X110.999Y-196.977
X110.999Y-207.137
X113.347Y-245.237
X113.347Y-247.777
X113.347Y-250.317
X113.347Y-252.857
X113.347Y-255.397
X113.347Y-257.937
X113.347Y-260.477
X113.347Y-263.017
X113.347Y-265.557
X113.347Y-268.097
X116.459Y-160.782
X116.459Y-170.942
X117.792Y-71.272
X117.792Y-74.486
X117.792Y-77.025
X117.792Y-79.566
X117.792Y-82.105
X119.634Y-59.69
X119.634Y-62.272
X119.634Y-64.855
X119.634Y-67.437
X120.968Y-245.237
X120.968Y-247.777
X120.968Y-250.317
X120.968Y-252.857
X120.968Y-255.397
X120.968Y-257.937
X120.968Y-260.477
X120.968Y-263.017
X120.968Y-265.557
X120.968Y-268.097
X123.615Y-163.957
X123.615Y-166.497
X123.615Y-169.037
X123.615Y-171.577
X123.615Y-174.117
X123.615Y-176.657
X123.615Y-179.197
X123.615Y-181.737
X123.615Y-184.277
X123.615Y-186.817
X123.615Y-189.357
X124.079Y-65.532
X124.079Y-75.692
X124.142Y-252.857
X124.142Y-263.017
X124.777Y-140.081
X124.777Y-155.321
X126.112Y-126.687
X126.112Y-136.847
X126.155Y-161.417
X126.155Y-163.957
X126.155Y-166.497
X126.155Y-169.037
X126.155Y-171.577
X126.155Y-174.117
X126.155Y-176.657
X126.155Y-179.197
X126.155Y-181.737
X126.155Y-184.277
X126.155Y-186.817
X126.155Y-189.357
X126.155Y-191.897
X126.619Y-40.64
X126.619Y-50.8
X127.381Y-245.237
X127.381Y-247.777
X127.381Y-250.317
X127.381Y-252.857
X127.381Y-255.397
X127.381Y-257.937
X127.381Y-260.477
X127.381Y-263.017
X127.381Y-265.557
X127.381Y-268.097
X127.996Y-65.542
X127.996Y-80.782
X128.695Y-161.417
X128.695Y-163.957
X128.695Y-189.357
X128.695Y-191.897
X130.536Y-65.542
X130.536Y-80.782
X130.556Y-40.483
X130.556Y-43.023
X130.556Y-45.563
X130.556Y-143.383
X130.556Y-156.083
X130.562Y-123.517
X130.562Y-138.757
X131.235Y-161.417
X131.235Y-163.957
X131.235Y-189.357
X131.235Y-191.897
X131.762Y-53.404
X133.076Y-65.542
X133.076Y-80.782
X133.096Y-143.383
X133.096Y-156.083
X133.102Y-123.517
X133.102Y-138.757
X133.775Y-161.417
X133.775Y-163.957
X133.775Y-189.357
X133.775Y-191.897
X134.302Y-53.404
X135.001Y-245.237
X135.001Y-247.777
X135.001Y-250.317
X135.001Y-252.857
X135.001Y-255.397
X135.001Y-257.937
X135.001Y-260.477
X135.001Y-263.017
X135.001Y-265.557
X135.001Y-268.097
X135.617Y-65.542
X135.617Y-80.782
X135.636Y-143.383
X135.636Y-156.083
X135.642Y-123.517
X135.642Y-138.757
X136.241Y-97.985
X136.241Y-110.685
X136.315Y-161.417
X136.315Y-163.957
X136.315Y-189.357
X136.315Y-191.897
X136.843Y-53.404
X137.541Y-57.848
X137.541Y-61.658
X138.156Y-65.542
X138.156Y-80.782
X138.176Y-143.383
X138.176Y-156.083
X138.182Y-123.517
X138.182Y-138.757
X138.303Y-40.483
X138.303Y-43.023
X138.303Y-45.563
X138.855Y-161.417
X138.855Y-163.957
X138.855Y-189.357
X138.855Y-191.897
X138.874Y-245.237
X138.874Y-247.777
X138.874Y-250.317
X138.874Y-252.857
X138.874Y-255.397
X138.874Y-257.937
X138.874Y-260.477
X138.874Y-263.017
X138.874Y-265.557
X138.874Y-268.097
X140.081Y-97.985
X140.081Y-110.685
X140.696Y-65.542
X140.696Y-80.782
X140.716Y-143.383
X140.716Y-156.083
X140.722Y-123.517
X140.722Y-138.757
X141.395Y-161.417
X141.395Y-163.957
X141.395Y-189.357
X141.395Y-191.897
X142.113Y-40.483
X142.113Y-43.023
X142.113Y-45.563
X143.237Y-65.542
X143.237Y-80.782
X143.262Y-123.517
X143.262Y-138.757
X143.891Y-97.985
X143.891Y-110.685
X143.935Y-161.417
X143.935Y-163.957
X143.935Y-189.357
X143.935Y-191.897
X145.776Y-65.542
X145.776Y-80.782
X145.802Y-123.517
X145.802Y-138.757
X145.923Y-40.483
X145.923Y-43.023
X145.923Y-45.563
X146.431Y-154.051
X146.475Y-161.417
X146.475Y-163.957
X146.475Y-189.357
X146.475Y-191.897
X146.494Y-245.237
X146.494Y-247.777
X146.494Y-250.317
X146.494Y-252.857
X146.494Y-255.397
X146.494Y-257.937
X146.494Y-260.477
X146.494Y-263.017
X146.494Y-265.557
X146.494Y-268.097
X147.13Y-53.404
X147.701Y-97.985
X147.701Y-110.685
X148.316Y-65.542
X148.316Y-80.782
X148.342Y-123.517
X148.342Y-138.757
X148.971Y-154.051
X149.015Y-161.417
X149.015Y-163.957
X149.015Y-189.357
X149.015Y-191.897
X149.733Y-40.483
X149.733Y-43.023
X149.733Y-45.563
X149.733Y-252.857
X149.733Y-263.017
X150.241Y-57.848
X150.241Y-61.658
X150.856Y-65.542
X150.856Y-80.782
X150.882Y-123.517
X150.882Y-138.757
X151.511Y-154.051
X151.555Y-161.417
X151.555Y-163.957
X151.555Y-166.497
X151.555Y-169.037
X151.555Y-171.577
X151.555Y-174.117
X151.555Y-176.657
X151.555Y-179.197
X151.555Y-181.737
X151.555Y-184.277
X151.555Y-186.817
X151.555Y-189.357
X151.555Y-191.897
X152.844Y-245.237
X152.844Y-247.777
X152.844Y-250.317
X152.844Y-252.857
X152.844Y-255.397
X152.844Y-257.937
X152.844Y-260.477
X152.844Y-263.017
X152.844Y-265.557
X152.844Y-268.097
X153.397Y-59.75
X153.397Y-65.542
X153.397Y-80.782
X153.422Y-123.517
X153.422Y-138.757
X153.543Y-40.483
X153.543Y-43.023
X153.543Y-45.563
X154.095Y-163.957
X154.095Y-166.497
X154.095Y-169.037
X154.095Y-171.577
X154.095Y-174.117
X154.095Y-176.657
X154.095Y-179.197
X154.095Y-181.737
X154.095Y-184.277
X154.095Y-186.817
X154.095Y-189.357
X154.11Y-154.052
X155.936Y-59.75
X155.936Y-65.542
X155.936Y-80.782
X155.962Y-123.517
X155.962Y-138.757
X157.353Y-40.483
X157.353Y-43.023
X157.353Y-45.563
X158.476Y-59.75
X158.476Y-65.542
X158.476Y-80.782
X158.502Y-123.517
X158.502Y-138.757
X160.464Y-245.237
X160.464Y-247.777
X160.464Y-250.317
X160.464Y-252.857
X160.464Y-255.397
X160.464Y-257.937
X160.464Y-260.477
X160.464Y-263.017
X160.464Y-265.557
X160.464Y-268.097
X161.016Y-59.75
X161.016Y-65.542
X161.016Y-80.782
X161.042Y-123.517
X161.042Y-138.757
X161.163Y-40.483
X161.163Y-43.023
X161.163Y-45.563
X161.163Y-223.393
X162.433Y-226.187
X163.556Y-59.75
X163.556Y-65.542
X163.556Y-80.782
X163.582Y-123.517
X163.582Y-138.757
X163.703Y-223.393
X164.27Y-154.052
X164.338Y-245.237
X164.338Y-247.777
X164.338Y-250.317
X164.338Y-252.857
X164.338Y-255.397
X164.338Y-257.937
X164.338Y-260.477
X164.338Y-263.017
X164.338Y-265.557
X164.338Y-268.097
X164.973Y-40.483
X164.973Y-43.023
X164.973Y-45.563
X164.973Y-226.187
X166.096Y-59.75
X166.096Y-65.542
X166.096Y-80.782
X166.122Y-123.517
X166.122Y-138.757
X166.243Y-223.393
X167.513Y-226.187
X168.636Y-59.75
X168.636Y-65.542
X168.636Y-80.782
X168.662Y-123.517
X168.662Y-138.757
X168.783Y-40.483
X168.783Y-43.023
X168.783Y-45.563
X168.783Y-223.393
X170.053Y-226.187
X171.177Y-59.75
X171.177Y-65.542
X171.177Y-80.782
X171.202Y-123.517
X171.202Y-138.757
X171.323Y-223.393
X171.958Y-245.237
X171.958Y-247.777
X171.958Y-250.317
X171.958Y-252.857
X171.958Y-255.397
X171.958Y-257.937
X171.958Y-260.477
X171.958Y-263.017
X171.958Y-265.557
X171.958Y-268.097
X172.593Y-40.483
X172.593Y-43.023
X172.593Y-45.563
X172.593Y-226.187
X173.716Y-59.75
X173.716Y-65.542
X173.716Y-80.782
X173.742Y-123.517
X173.742Y-138.757
X173.863Y-223.393
X175.133Y-226.187
X175.196Y-252.857
X175.196Y-263.017
X176.256Y-59.75
X176.256Y-65.542
X176.256Y-80.782
X176.282Y-123.517
X176.282Y-138.757
X176.403Y-40.483
X176.403Y-43.023
X176.403Y-45.563
X176.403Y-223.393
X177.044Y-189.24
X177.044Y-196.86
X177.673Y-226.187
X178.822Y-123.517
X178.822Y-138.757
X178.943Y-223.393
X179.584Y-189.24
X179.584Y-196.86
X180.213Y-40.483
X180.213Y-43.023
X180.213Y-45.563
X180.213Y-53.34
X180.213Y-226.187
X181.362Y-123.517
X181.362Y-138.757
X181.483Y-223.393
X181.59Y-245.297
X181.59Y-247.837
X181.59Y-250.377
X181.59Y-252.917
X181.59Y-255.457
X181.59Y-257.998
X181.59Y-260.537
X181.59Y-263.077
X181.59Y-265.618
X181.59Y-268.157
X182.124Y-189.24
X182.124Y-196.86
X182.187Y-165.618
X182.187Y-173.238
X182.753Y-226.187
X183.902Y-123.517
X183.902Y-138.757
X184.023Y-40.483
X184.023Y-43.023
X184.023Y-45.563
X184.023Y-223.393
X184.067Y-245.297
X184.067Y-247.837
X184.067Y-250.377
X184.067Y-252.917
X184.067Y-255.457
X184.067Y-257.998
X184.067Y-260.537
X184.067Y-263.077
X184.067Y-265.618
X184.067Y-268.157
X184.664Y-189.24
X184.664Y-196.86
X184.702Y-68.132
X184.702Y-72.517
X184.702Y-76.324
X184.702Y-89.027
X184.727Y-62.865
X184.727Y-165.618
X184.727Y-173.238
X185.293Y-226.187
X186.442Y-123.517
X186.442Y-138.757
X186.563Y-241.3
X187.204Y-189.24
X187.204Y-196.86
X187.242Y-68.132
X187.242Y-72.517
X187.242Y-76.324
X187.242Y-89.024
X187.267Y-62.865
X187.267Y-165.618
X187.267Y-173.238
X187.833Y-40.483
X187.833Y-43.023
X187.833Y-45.563
X188.982Y-123.517
X188.982Y-138.757
X189.21Y-245.297
X189.21Y-247.837
X189.21Y-250.377
X189.21Y-252.917
X189.21Y-255.457
X189.21Y-257.998
X189.21Y-260.537
X189.21Y-263.077
X189.21Y-265.618
X189.21Y-268.157
X189.744Y-189.24
X189.744Y-196.86
X189.782Y-68.132
X189.782Y-72.517
X189.782Y-76.324
X189.782Y-89.024
X189.807Y-62.865
X189.807Y-165.618
X189.807Y-173.238
X189.865Y-145.923
X189.865Y-150.923
X190.5Y-53.34
X191.643Y-40.483
X191.643Y-43.023
X191.643Y-45.563
X192.284Y-189.24
X192.284Y-196.86
X192.322Y-76.324
X192.322Y-89.024
X192.347Y-165.618
X192.347Y-173.238
X193.04Y-53.34
X194.824Y-189.24
X194.824Y-196.86
X194.862Y-76.324
X194.862Y-89.024
X194.887Y-165.618
X194.887Y-173.238
X194.945Y-209.55
X195.58Y-53.34
X196.723Y-241.3
X196.831Y-245.297
X196.831Y-247.837
X196.831Y-250.377
X196.831Y-252.917
X196.831Y-255.457
X196.831Y-257.998
X196.831Y-260.537
X196.831Y-263.077
X196.831Y-265.618
X196.831Y-268.157
X197.364Y-189.24
X197.364Y-196.86
X197.402Y-76.324
X197.402Y-89.024
X197.427Y-165.618
X197.427Y-173.238
X197.485Y-62.865
X197.485Y-71.247
X198.164Y-97.456
X199.263Y-53.34
X199.904Y-189.24
X199.904Y-196.86
X199.942Y-76.324
X199.942Y-89.024
X199.945Y-209.55
X199.967Y-165.618
X199.967Y-173.238
X200.025Y-62.865
X200.025Y-71.247
X200.704Y-97.456
X201.803Y-53.34
X202.482Y-76.324
X202.482Y-89.024
X202.507Y-165.618
X202.507Y-173.238
X202.565Y-62.865
X202.565Y-71.247
X203.244Y-97.456
X203.454Y-40.483
X203.454Y-43.023
X203.454Y-45.563
X203.835Y-186.7
X203.835Y-196.86
X204.343Y-53.34
X205.047Y-165.618
X205.047Y-173.238
X205.803Y-206.946
X205.803Y-214.566
X206.419Y-233.804
X206.419Y-236.344
X206.419Y-238.884
X206.419Y-241.424
X206.419Y-243.964
X206.419Y-246.504
X206.419Y-249.044
X206.419Y-251.584
X206.419Y-254.124
X206.419Y-256.664
X207.033Y-64.894
X207.033Y-72.514
X207.033Y-78.927
X207.033Y-86.547
X207.264Y-40.483
X207.264Y-43.023
X207.264Y-45.563
X208.343Y-206.946
X208.343Y-214.566
X208.915Y-143.256
X208.915Y-155.956
X208.915Y-163.068
X208.915Y-173.228
X209.573Y-64.894
X209.573Y-72.514
X209.573Y-78.927
X209.573Y-86.547
X209.746Y-123.517
X209.746Y-138.757
X210.883Y-206.946
X210.883Y-214.566
X211.074Y-40.483
X211.074Y-43.023
X211.074Y-45.563
X211.455Y-143.256
X211.455Y-155.956
X211.499Y-233.804
X211.499Y-236.344
X211.499Y-238.884
X211.499Y-241.424
X211.499Y-243.964
X211.499Y-246.504
X211.499Y-249.044
X211.499Y-251.584
X211.499Y-254.124
X211.499Y-256.664
X211.518Y-229.806
X212.113Y-64.894
X212.113Y-72.514
X212.113Y-78.927
X212.113Y-86.547
X212.286Y-123.517
X212.286Y-138.757
X212.794Y-190.383
X212.794Y-198.003
X213.423Y-206.946
X213.423Y-214.566
X213.995Y-143.256
X213.995Y-155.956
X214.63Y-53.34
X214.653Y-64.894
X214.653Y-72.514
X214.653Y-78.927
X214.653Y-86.547
X214.826Y-123.517
X214.826Y-138.757
X214.884Y-40.483
X214.884Y-43.023
X214.884Y-45.563
X215.334Y-190.383
X215.334Y-198.003
X215.963Y-206.946
X215.963Y-214.566
X216.535Y-143.256
X216.535Y-155.956
X217.193Y-64.894
X217.193Y-72.514
X217.193Y-78.927
X217.193Y-86.547
X217.366Y-123.517
X217.366Y-138.757
X217.874Y-166.824
X217.874Y-174.444
X217.874Y-190.383
X217.874Y-198.003
X218.504Y-206.946
X218.504Y-214.566
X218.694Y-40.483
X218.694Y-43.023
X218.694Y-45.563
X219.075Y-143.256
X219.075Y-155.956
X219.119Y-233.804
X219.119Y-236.344
X219.119Y-238.884
X219.119Y-241.424
X219.119Y-243.964
X219.119Y-246.504
X219.119Y-249.044
X219.119Y-251.584
X219.119Y-254.124
X219.119Y-256.664
X219.733Y-64.894
X219.733Y-72.514
X219.733Y-78.927
X219.733Y-86.547
X219.906Y-123.517
X219.906Y-138.757
X220.414Y-166.824
X220.414Y-174.444
X220.414Y-190.383
X220.414Y-198.003
X221.043Y-206.946
X221.043Y-214.566
X221.615Y-143.256
X221.615Y-155.956
X221.678Y-229.806
X222.273Y-64.894
X222.273Y-72.514
X222.273Y-78.927
X222.273Y-86.547
X222.313Y-227.266
X222.446Y-123.517
X222.446Y-138.757
X222.504Y-40.483
X222.504Y-43.023
X222.504Y-45.563
X222.954Y-166.824
X222.954Y-174.444
X222.954Y-190.383
X222.954Y-198.003
X223.583Y-206.946
X223.583Y-214.566
X223.964Y-99.314
X223.964Y-103.124
X224.897Y-236.344
X224.897Y-238.884
X224.897Y-241.424
X224.897Y-243.964
X224.897Y-246.504
X224.897Y-249.044
X224.897Y-251.584
X224.897Y-254.124
X224.986Y-123.517
X224.986Y-138.757
X224.986Y-143.256
X225.494Y-166.824
X225.494Y-174.444
X225.494Y-190.383
X225.494Y-198.003
X226.123Y-206.946
X226.123Y-214.566
X226.314Y-40.483
X226.314Y-43.023
X226.314Y-45.563
X227.526Y-123.517
X227.526Y-138.757
X227.526Y-143.256
X228.034Y-166.824
X228.034Y-174.444
X228.034Y-190.383
X228.034Y-198.003
X229.362Y-62.464
X229.362Y-75.164
X230.065Y-214.566
X230.065Y-224.726
X230.066Y-123.517
X230.066Y-138.757
X230.066Y-143.256
X230.124Y-40.483
X230.124Y-43.023
X230.124Y-45.563
X230.574Y-166.824
X230.574Y-174.444
X230.574Y-190.383
X230.574Y-198.003
X230.632Y-81.547
X230.632Y-86.547
X231.902Y-62.464
X231.902Y-75.164
X232.474Y-214.566
X232.474Y-224.726
X232.474Y-227.266
X232.517Y-236.344
X232.517Y-238.884
X232.517Y-241.424
X232.517Y-243.964
X232.517Y-246.504
X232.517Y-249.044
X232.517Y-251.584
X232.517Y-254.124
X232.606Y-123.517
X232.606Y-138.757
X232.606Y-143.256
X233.114Y-166.824
X233.114Y-174.444
X233.114Y-190.383
X233.114Y-198.003
X233.87Y-117.157
X233.934Y-40.483
X233.934Y-43.023
X233.934Y-45.563
X235.077Y-212.09
X235.077Y-224.79
X235.146Y-123.517
X235.146Y-138.757
X235.146Y-143.256
X235.654Y-166.824
X235.654Y-174.444
X235.654Y-190.383
X235.654Y-198.003
X236.41Y-117.157
X236.664Y-99.314
X236.664Y-103.124
X236.982Y-71.388
X236.982Y-81.547
X237.686Y-123.517
X237.686Y-138.757
X237.686Y-143.256
X237.744Y-40.483
X237.744Y-43.023
X237.744Y-45.563
X238.194Y-166.824
X238.194Y-174.444
X238.95Y-117.157
X239.522Y-187.833
X239.522Y-197.993
X240.226Y-123.517
X240.226Y-138.757
X240.226Y-143.256
X240.734Y-166.824
X240.734Y-174.444
X240.861Y-73.86
X240.861Y-89.1
X241.49Y-117.157
X241.554Y-40.483
X241.554Y-43.023
X241.554Y-45.563
X242.766Y-123.517
X242.766Y-138.757
X242.766Y-143.256
X243.401Y-73.86
X243.401Y-89.1
X244.03Y-117.157
X244.602Y-164.211
X244.602Y-174.371
X245.306Y-123.517
X245.306Y-138.757
X245.306Y-143.256
X245.364Y-40.483
X245.364Y-43.023
X245.364Y-45.563
X245.941Y-73.86
X245.941Y-89.1
X246.57Y-117.157
X247.846Y-123.517
X247.846Y-138.757
X247.846Y-143.256
X248.481Y-73.86
X248.481Y-89.1
X249.111Y-117.157
X249.174Y-40.483
X249.174Y-43.023
X249.174Y-45.563
X250.386Y-123.517
X250.386Y-138.757
X251.021Y-73.86
X251.021Y-89.1
X251.65Y-117.157
X251.714Y-143.256
X251.714Y-155.956
X252.926Y-123.517
X252.926Y-138.757
X252.984Y-40.483
X252.984Y-43.023
X252.984Y-45.563
X253.561Y-73.86
X253.561Y-89.1
X254.19Y-117.157
X254.254Y-143.256
X254.254Y-155.956
X255.466Y-123.517
X255.466Y-138.757
X256.101Y-73.86
X256.101Y-89.1
X256.731Y-117.157
X256.794Y-40.483
X256.794Y-43.023
X256.794Y-45.563
X256.794Y-143.256
X256.794Y-155.956
X258.006Y-123.517
X258.006Y-138.757
X258.641Y-73.86
X258.641Y-89.1
X259.334Y-143.256
X259.334Y-155.956
X260.546Y-123.517
X260.546Y-138.757
X260.604Y-40.483
X260.604Y-43.023
X260.604Y-45.563
X261.181Y-73.86
X261.181Y-89.1
X261.874Y-143.256
X261.874Y-155.956
X263.086Y-123.517
X263.086Y-138.757
X263.721Y-73.86
X263.721Y-89.1
X264.414Y-40.483
X264.414Y-43.023
X264.414Y-45.563
X264.414Y-143.256
X264.414Y-155.956
X265.626Y-123.517
X265.626Y-138.757
X266.261Y-73.86
X266.261Y-89.1
X268.166Y-123.517
X268.166Y-138.757
X268.224Y-40.483
X268.224Y-43.023
X268.224Y-45.563
X268.801Y-73.86
X268.801Y-89.1
X270.764Y-145.796
X270.764Y-150.796
X271.341Y-73.86
X271.341Y-89.1
X272.034Y-40.483
X272.034Y-43.023
X272.034Y-45.563
X272.161Y-123.517
X272.161Y-133.677
X273.05Y-167.386
X273.05Y-169.926
X273.05Y-172.466
X273.05Y-175.26
X273.881Y-73.86
X273.881Y-89.1
X275.844Y-40.513
X275.844Y-43.053
X275.844Y-45.593
X275.844Y-53.213
X276.421Y-73.86
X276.421Y-89.1
X278.961Y-73.86
X278.961Y-89.1
X279.672Y-40.52
X279.672Y-43.06
X279.672Y-45.6
X279.672Y-53.22
X281.501Y-73.86
X281.501Y-89.1
X282.321Y-131.191
X282.321Y-138.811
X282.321Y-141.351
X282.321Y-143.891
X282.829Y-92.964
X282.829Y-96.774
X283.464Y-40.483
X283.464Y-43.023
X283.464Y-45.563
X284.041Y-73.86
X284.041Y-89.1
X284.734Y-112.014
X284.734Y-114.554
X284.734Y-117.094
X284.734Y-119.634
X285.369Y-92.964
X285.369Y-96.774
X285.75Y-167.386
X285.75Y-169.926
X285.75Y-172.466
X285.75Y-175.26
X286.131Y-131.191
X286.131Y-138.811
X286.131Y-141.351
X286.131Y-143.891
X286.581Y-73.86
X286.581Y-89.1
X287.274Y-40.483
X287.274Y-43.023
X287.274Y-45.563
X287.909Y-92.964
X287.909Y-96.774
X288.798Y-172.466
X289.121Y-73.86
X289.121Y-89.1
X289.941Y-131.191
X289.941Y-134.366
X289.941Y-138.176
X289.941Y-141.375
X289.941Y-144.574
X289.941Y-147.773
X289.941Y-155.321
X289.941Y-158.496
X289.941Y-161.671
X291.084Y-40.483
X291.084Y-43.023
X291.084Y-45.563
X293.156Y-105.918
X293.798Y-172.466
X295.529Y-92.964
X295.529Y-96.774
X295.656Y-56.642
X295.656Y-61.642
X295.656Y-71.962
X295.656Y-76.962
X295.656Y-84.027
X295.656Y-89.027
X295.656Y-105.918
X296.926Y-45.085
X296.926Y-47.625
X296.926Y-50.165
X297.434Y-112.014
X297.434Y-114.554
X297.434Y-117.094
X297.434Y-119.634
X297.561Y-151.066
X298.617Y-166.814
X298.707Y-173.863
X300.101Y-151.066
X301.117Y-166.814
X301.207Y-173.863
X301.371Y-48.895
X301.371Y-61.595
X302.641Y-118.999
X302.641Y-131.191
X302.641Y-134.366
X302.641Y-138.176
X302.641Y-141.375
X302.641Y-144.574
X302.641Y-147.773
X302.641Y-151.066
X302.641Y-155.321
X302.641Y-158.496
X302.641Y-161.671
X303.911Y-48.895
X303.911Y-61.595
X304.59Y-68.072
X304.59Y-75.692
X304.59Y-81.468
X304.59Y-89.087
X304.59Y-102.486
X304.59Y-110.106
X304.605Y-113.284
X305.181Y-118.999
X306.451Y-48.895
X306.451Y-61.595
X306.578Y-157.226
X306.578Y-160.422
X306.578Y-163.618
X306.578Y-166.814
X306.578Y-170.011
X306.578Y-173.207
X306.578Y-176.403
X307.13Y-68.072
X307.13Y-75.692
X307.13Y-81.468
X307.13Y-89.087
X307.13Y-102.486
X307.13Y-110.106
X307.721Y-118.999
X308.991Y-48.895
X308.991Y-61.595
X309.035Y-137.538
X309.035Y-140.078
X309.035Y-142.618
X309.035Y-145.158
X309.035Y-147.698
X309.035Y-150.238
X309.035Y-152.778
X309.626Y-92.964
X309.626Y-96.774
X309.67Y-68.072
X309.67Y-75.692
X309.67Y-81.468
X309.67Y-89.087
X309.67Y-102.486
X309.67Y-110.106
X310.388Y-132.461
X312.166Y-92.964
X312.166Y-96.774
X312.21Y-68.072
X312.21Y-75.692
X312.21Y-81.468
X312.21Y-89.087
X312.21Y-102.486
X312.21Y-110.106
X312.229Y-38.1
X312.229Y-53.34
X312.274Y-116.519
X312.274Y-124.139
X312.928Y-132.461
X314.706Y-92.964
X314.706Y-96.774
X314.75Y-68.072
X314.75Y-75.692
X314.75Y-81.468
X314.75Y-89.087
X314.75Y-102.486
X314.75Y-110.106
X314.813Y-116.519
X314.813Y-124.139
X314.833Y-56.642
X314.833Y-61.642
X315.468Y-132.461
X316.655Y-137.538
X316.655Y-140.078
X316.655Y-142.618
X316.655Y-145.158
X316.655Y-147.698
X316.655Y-150.238
X316.655Y-152.778
X316.738Y-45.085
X316.738Y-47.625
X316.738Y-50.165
X317.29Y-68.072
X317.29Y-75.692
X317.29Y-81.468
X317.29Y-89.087
X317.29Y-102.486
X317.29Y-110.106
X317.305Y-113.284
X317.353Y-116.519
X317.353Y-124.139
X319.278Y-157.226
X319.278Y-160.422
X319.278Y-163.618
X319.278Y-166.814
X319.278Y-170.011
X319.278Y-173.207
X319.278Y-176.403
X319.83Y-68.072
X319.83Y-75.692
X319.83Y-81.468
X319.83Y-89.087
X319.83Y-102.486
X319.83Y-110.106
X319.893Y-116.519
X319.893Y-124.139
X320.548Y-48.942
X320.548Y-61.642
X322.326Y-92.964
X322.326Y-96.774
X322.37Y-81.468
X322.37Y-89.087
X323.088Y-48.942
X323.088Y-61.642
X323.088Y-128.651
X323.088Y-131.826
X323.088Y-135.001
X323.088Y-138.176
X323.088Y-144.526
X323.088Y-147.701
X323.088Y-151.066
X323.088Y-155.194
X323.088Y-158.411
X323.088Y-161.629
X323.088Y-164.846
X323.122Y-141.351
X324.231Y-65.532
X324.231Y-75.692
X324.358Y-99.946
X324.358Y-110.106
X324.358Y-113.98
X324.358Y-124.139
X325.628Y-48.942
X325.628Y-61.642
X325.628Y-151.066
X326.263Y-81.28
X326.263Y-91.44
X328.168Y-151.066
X328.233Y-170.011
X328.993Y-81.28
X328.993Y-91.44
X329.438Y-40.64
X329.438Y-43.18
X329.438Y-45.72
X329.438Y-53.34
X330.733Y-170.011
X332.613Y-40.64
X332.613Y-53.34
X335.788Y-40.64
X335.788Y-43.18
X335.788Y-45.72
X335.788Y-53.34
X335.788Y-128.651
X335.788Y-131.826
X335.788Y-135.001
X335.788Y-138.176
X335.788Y-144.526
X335.788Y-147.701
X335.788Y-155.194
X335.788Y-158.411
X335.788Y-161.629
X335.788Y-164.846
X335.822Y-141.351
X339.598Y-40.64
X339.598Y-53.34
X343.408Y-40.64
X343.408Y-43.18
X343.408Y-45.72
X343.408Y-53.34
X343.408Y-58.547
X343.408Y-61.087
X343.408Y-63.627
X343.408Y-71.247
X347.218Y-40.64
X347.218Y-43.18
X347.218Y-45.72
X347.218Y-53.34
X347.218Y-58.547
X347.218Y-61.087
X347.218Y-63.627
X347.218Y-71.247
X351.028Y-58.547
X351.028Y-61.087
X351.028Y-63.627
X351.028Y-71.247
X351.155Y-40.64
X351.155Y-53.34
X354.965Y-40.64
X354.965Y-43.18
X354.965Y-45.72
X354.965Y-53.34
X354.965Y-58.547
X354.965Y-73.787
X358.902Y-58.547
X358.902Y-73.787
X367.137Y-80.197
X369.678Y-80.197
X369.697Y-63.627
X369.697Y-66.167
X369.697Y-68.707
X369.697Y-76.327
X372.217Y-80.197
X372.872Y-63.627
X372.872Y-76.327
X374.757Y-80.197
X376.047Y-63.627
X376.047Y-66.167
X376.047Y-68.707
X376.047Y-76.327
X377.297Y-80.197
X379.837Y-80.197
X379.857Y-40.64
X379.857Y-43.18
X379.857Y-45.72
X379.857Y-53.34
X379.857Y-63.627
X379.857Y-66.167
X379.857Y-68.707
X379.857Y-76.327
X382.377Y-80.197
X383.667Y-40.64
X383.667Y-43.18
X383.667Y-45.72
X383.667Y-53.34
X383.667Y-63.627
X383.667Y-66.167
X383.667Y-68.707
X383.667Y-76.327
X384.917Y-80.197
X386.842Y-40.64
X386.842Y-53.34
X386.842Y-63.627
X386.842Y-76.327
X387.457Y-80.197
X389.998Y-80.197
X390.017Y-40.64
X390.017Y-43.18
X390.017Y-45.72
X390.017Y-53.34
X390.017Y-63.627
X390.017Y-66.167
X390.017Y-68.707
X390.017Y-76.327
T5
X133.881Y-34.02
X135.265Y-31.252
X136.649Y-34.02
X138.036Y-31.252
X139.421Y-34.02
X140.805Y-31.252
X142.189Y-34.02
X143.576Y-31.252
X144.96Y-34.02
X146.345Y-31.252
X147.729Y-34.02
X149.116Y-31.252
X150.5Y-34.02
X151.884Y-31.252
X153.271Y-34.02
X154.655Y-31.252
X156.04Y-34.02
X157.424Y-31.252
X158.811Y-34.02
X160.195Y-31.252
X161.579Y-34.02
X162.964Y-31.252
X164.351Y-34.02
X165.735Y-31.252
X167.119Y-34.02
X192.381Y-34.02
X193.765Y-31.252
X195.149Y-34.02
X196.536Y-31.252
X197.921Y-34.02
X199.305Y-31.252
X200.689Y-34.02
X202.076Y-31.252
X203.46Y-34.02
X204.845Y-31.252
X206.229Y-34.02
X207.616Y-31.252
X209.0Y-34.02
X210.384Y-31.252
X211.771Y-34.02
X213.155Y-31.252
X214.54Y-34.02
X215.924Y-31.252
X217.311Y-34.02
X218.695Y-31.252
X220.079Y-34.02
X221.464Y-31.252
X222.851Y-34.02
X224.235Y-31.252
X225.619Y-34.02
X335.011Y-33.906
X336.395Y-31.366
X337.779Y-33.906
X339.166Y-31.366
X340.55Y-33.906
X341.935Y-31.366
X343.322Y-33.906
X344.706Y-31.366
X346.09Y-33.906
X371.666Y-33.906
X373.05Y-31.366
X374.434Y-33.906
X375.821Y-31.366
X377.205Y-33.906
X378.59Y-31.366
X379.976Y-33.906
X381.361Y-31.366
X382.745Y-33.906
T6
X109.474Y-44.45
X109.474Y-52.07
X112.014Y-44.45
X112.014Y-52.07
X114.554Y-44.45
X114.554Y-52.07
X117.094Y-44.45
X117.094Y-52.07
T7
X36.195Y-83.792
X38.608Y-128.397
X45.72Y-147.828
X54.61Y-132.334
X54.61Y-136.271
X61.087Y-243.205
X61.849Y-139.7
X62.992Y-147.955
X62.992Y-189.357
X62.992Y-194.437
X64.008Y-139.7
X74.93Y-207.137
X80.137Y-140.081
X80.137Y-243.205
X91.059Y-62.928
X91.694Y-147.701
X93.662Y-65.532
X96.012Y-69.787
X97.409Y-202.057
X98.679Y-268.097
X101.79Y-59.03
X124.142Y-268.097
X124.777Y-147.701
X129.54Y-244.717
X132.93Y-244.717
X149.669Y-268.097
X152.273Y-146.431
X158.496Y-146.431
X159.258Y-198.12
X171.45Y-197.485
X175.196Y-268.161
X176.466Y-243.141
X178.435Y-69.215
X189.865Y-223.393
X193.592Y-68.58
X193.728Y-270.065
X196.723Y-238.125
X201.974Y-146.428
X203.244Y-105.026
X204.387Y-119.631
X212.113Y-75.164
X218.567Y-147.066
X221.361Y-264.16
X224.79Y-53.34
X226.822Y-55.88
X227.526Y-105.026
X227.526Y-118.996
X228.727Y-78.93
X228.727Y-84.01
X232.537Y-231.775
X238.887Y-105.026
X239.649Y-147.066
X243.903Y-249.047
X247.846Y-147.066
X261.874Y-147.066
X272.034Y-104.394
X272.034Y-115.189
X272.161Y-138.757
X280.67Y-128.651
X280.67Y-133.731
X280.67Y-136.271
X280.67Y-148.336
X280.67Y-165.1
X282.321Y-104.394
X291.846Y-53.22
X291.846Y-76.962
X295.783Y-176.403
X299.466Y-63.627
X304.673Y-128.651
X306.07Y-153.225
X307.721Y-124.139
X311.912Y-134.874
X312.274Y-121.666
X314.198Y-177.546
X316.103Y-166.814
X316.357Y-128.651
X319.913Y-137.541
X331.978Y-59.182
X331.978Y-63.627
X335.788Y-63.627
X335.788Y-126.111
X337.744Y-124.079
X339.725Y-83.618
X339.725Y-122.11
X342.011Y-126.111
X342.011Y-152.146
X342.011Y-176.403
X354.965Y-75.692
T8
X38.144Y-67.434
X40.684Y-67.434
X43.224Y-67.434
X45.764Y-67.434
X48.304Y-67.434
X50.844Y-67.434
X53.384Y-67.434
X55.924Y-67.434
X58.464Y-67.434
X61.004Y-67.434
X63.544Y-67.434
X66.084Y-67.434
X68.624Y-67.434
X71.164Y-67.434
X73.704Y-67.434
X76.244Y-67.434
X78.784Y-67.434
X81.324Y-67.434
X83.864Y-67.434
X86.404Y-67.434
X88.944Y-67.434
X91.484Y-67.434
X94.742Y-160.448
X94.742Y-162.988
X94.742Y-165.528
X96.71Y-67.434
X97.282Y-162.988
X99.251Y-67.434
X101.378Y-160.448
X101.378Y-162.988
X101.378Y-165.528
X101.79Y-67.434
X103.918Y-162.988
X108.013Y-160.448
X108.013Y-162.988
X108.013Y-165.528
X110.553Y-162.988
X185.972Y-57.909
X188.512Y-57.909
X191.052Y-57.909
X193.592Y-57.909
X198.672Y-57.909
X201.212Y-57.909
X203.752Y-57.909
X212.09Y-113.411
X214.63Y-113.411
X217.17Y-113.411
X219.71Y-113.411
X224.79Y-113.411
X226.822Y-53.34
X226.822Y-58.544
X229.362Y-53.34
X229.362Y-58.544
X231.902Y-53.34
X231.902Y-58.544
X234.442Y-53.34
X234.442Y-58.544
X245.872Y-193.675
X245.872Y-196.215
X245.872Y-198.755
X245.872Y-201.295
X245.872Y-203.835
X245.872Y-206.375
X245.872Y-208.915
X245.872Y-211.455
X245.872Y-213.995
X245.872Y-216.535
X245.872Y-219.075
X245.872Y-221.615
X245.872Y-224.155
X245.872Y-226.695
X245.872Y-229.235
X245.872Y-231.775
X245.872Y-234.315
X245.872Y-236.855
X245.872Y-239.395
X245.872Y-241.935
X245.872Y-244.475
X245.872Y-247.015
X245.872Y-249.555
X245.872Y-252.095
X245.872Y-254.635
X245.872Y-257.175
X245.872Y-259.715
X245.872Y-262.255
X248.412Y-193.675
X248.412Y-196.215
X248.412Y-198.755
X248.412Y-201.295
X248.412Y-203.835
X248.412Y-206.375
X248.412Y-208.915
X248.412Y-211.455
X248.412Y-213.995
X248.412Y-216.535
X248.412Y-219.075
X248.412Y-221.615
X248.412Y-224.155
X248.412Y-226.695
X248.412Y-229.235
X248.412Y-231.775
X248.412Y-234.315
X248.412Y-236.855
X248.412Y-239.395
X248.412Y-241.935
X248.412Y-244.475
X248.412Y-247.015
X248.412Y-249.555
X248.412Y-252.095
X248.412Y-254.635
X248.412Y-257.175
X248.412Y-259.715
X248.412Y-262.255
X266.998Y-66.484
X266.998Y-69.025
X269.538Y-66.484
X269.538Y-69.025
X272.078Y-66.484
X272.078Y-69.025
T9
X241.598Y-58.544
X241.598Y-61.084
X244.138Y-58.544
X244.138Y-61.084
X246.678Y-58.544
X246.678Y-61.084
X249.218Y-58.544
X249.218Y-61.084
X251.758Y-58.544
X251.758Y-61.084
X254.298Y-58.544
X254.298Y-61.084
X256.838Y-58.544
X256.838Y-61.084
X259.378Y-58.544
X259.378Y-61.084
X261.918Y-58.544
X261.918Y-61.084
X264.458Y-58.544
X264.458Y-61.084
X266.998Y-58.544
X266.998Y-61.084
X269.538Y-58.544
X269.538Y-61.084
X272.078Y-58.544
X272.078Y-61.084
X274.618Y-58.544
X274.618Y-61.084
X277.158Y-58.544
X277.158Y-61.084
X279.698Y-58.544
X279.698Y-61.084
X282.238Y-58.544
X282.238Y-61.084
T10
X250.129Y-169.926
T11
X38.142Y-53.086
X43.142Y-53.086
X56.765Y-34.02
X58.152Y-31.252
X59.536Y-34.02
X60.921Y-31.252
X62.305Y-34.02
X63.692Y-31.252
X65.076Y-34.02
X66.46Y-31.252
X67.845Y-34.02
X69.231Y-31.252
X70.616Y-34.02
X72.0Y-31.252
X73.387Y-34.02
X74.771Y-31.252
X76.155Y-34.02
X77.54Y-31.252
X78.927Y-34.02
X80.311Y-31.252
X81.695Y-34.02
X83.079Y-31.252
X84.466Y-34.02
X85.851Y-31.252
X87.235Y-34.02
X96.52Y-54.03
X96.52Y-59.03
X105.664Y-47.038
X105.664Y-54.038
X110.744Y-47.038
X110.744Y-54.038
X115.824Y-47.038
X115.824Y-54.038
X117.174Y-119.38
X120.904Y-47.038
X120.904Y-54.038
X122.174Y-119.38
X251.265Y-34.02
X252.652Y-31.252
X254.036Y-34.02
X255.421Y-31.252
X256.805Y-34.02
X258.192Y-31.252
X259.576Y-34.02
X260.96Y-31.252
X262.345Y-34.02
X263.731Y-31.252
X265.116Y-34.02
X266.5Y-31.252
X267.887Y-34.02
X269.271Y-31.252
X270.655Y-34.02
X272.04Y-31.252
X273.427Y-34.02
X274.811Y-31.252
X276.195Y-34.02
X277.579Y-31.252
X278.966Y-34.02
X280.351Y-31.252
X281.735Y-34.02
T13
X108.5Y-25.639
X108.5Y-28.139
X111.0Y-25.639
X111.0Y-28.139
X113.5Y-25.639
X113.5Y-28.139
T14
X270.129Y-169.926
T15
X103.5Y-35.639
X103.5Y-40.639
X106.0Y-25.639
X106.0Y-38.139
X111.0Y-35.639
X111.0Y-40.639
X116.0Y-25.639
X116.0Y-38.139
X118.5Y-35.639
X118.5Y-40.639
T16
X49.973Y-32.7
X94.116Y-32.636
X127.0Y-32.636
X174.0Y-32.636
X185.5Y-32.636
X232.5Y-32.636
X244.473Y-32.7
X288.616Y-32.636
X328.056Y-32.636
X353.045Y-32.636
X364.711Y-32.636
X389.7Y-32.636
T17
X35.014Y-272.009
X48.069Y-114.503
X48.069Y-238.506
X206.819Y-272.009
X367.271Y-49.505
X367.271Y-144.018
T8
G00X34.604Y-34.557
M15
G01X34.604Y-33.057
M16
G05
G00X42.104Y-34.557
M15
G01X42.104Y-33.057
M16
G05
G00X296.75Y-34.303
M15
G01X296.75Y-32.803
M16
G05
G00X304.25Y-34.303
M15
G01X304.25Y-32.803
M16
G05
G00X312.601Y-34.303
M15
G01X312.601Y-32.803
M16
G05
G00X320.101Y-34.303
M15
G01X320.101Y-32.803
M16
G05
T12
G00X38.954Y-30.107
M15
G01X37.754Y-30.107
M16
G05
G00X301.1Y-29.854
M15
G01X299.9Y-29.854
M16
G05
G00X316.95Y-29.854
M15
G01X315.75Y-29.854
M16
G05
M30
